<svg width="384" height="410" viewBox="0 0 384 410" fill="none" xmlns="http://www.w3.org/2000/svg">
<path d="M319.607 337H309.89V303.882L302.295 311.614L296.753 305.798L311.122 291.36H319.607V337ZM344.865 337.821C335.285 337.821 326.527 333.716 326.527 325.162C326.527 319.62 330.838 315.377 336.312 313.462C331.248 311.682 327.28 308.398 327.28 302.719C327.28 294.165 336.38 290.676 344.865 290.676C353.281 290.676 362.451 294.165 362.451 302.719C362.451 308.398 358.413 311.682 353.35 313.462C358.824 315.377 363.203 319.62 363.203 325.162C363.203 333.647 354.445 337.821 344.865 337.821ZM344.865 309.63C347.671 309.219 352.529 307.645 352.529 304.224C352.529 300.94 349.313 299.024 344.865 299.024C340.349 299.024 337.133 300.94 337.133 304.224C337.133 307.645 342.06 309.219 344.865 309.63ZM344.865 329.473C349.518 329.473 353.35 327.284 353.35 323.931C353.35 320.099 347.671 318.251 344.865 317.841C341.991 318.251 336.38 320.099 336.38 323.931C336.38 327.284 340.075 329.473 344.865 329.473Z" fill="#005C87"/>
<path d="M366.954 103H356.28L372.633 65.9132H349.642V57.36H383.924V64.1341L366.954 103Z" fill="#312684"/>
<path d="M53.2549 389H43.5385V379.557H21.7106V371.894L39.8435 343.36H53.2549V371.004H59.1396V379.557H53.2549V389ZM43.5385 371.004V351.982L31.2218 371.004H43.5385ZM98.3941 389H64.0443V381.405C82.7245 367.583 88.1986 362.861 88.1986 357.25C88.1986 353.282 84.572 351.297 80.8086 351.297C75.6083 351.297 71.6396 353.35 68.5604 356.566L63.0179 350.134C67.4656 345.002 74.2397 342.676 80.6033 342.676C90.3198 342.676 98.0519 348.15 98.0519 357.25C98.0519 365.051 91.6199 371.825 79.7822 380.447H98.3941V389Z" fill="#019CE5"/>
<path d="M297.064 348.178H304.456V357.516H302.636V349.746H298.884V357.516H297.064V348.178ZM307.28 348.178H309.996C310.574 348.178 311.046 348.229 311.41 348.332C311.783 348.425 312.133 348.612 312.46 348.892C313.094 349.452 313.412 350.203 313.412 351.146C313.412 352.023 313.155 352.718 312.642 353.232C312.091 353.782 311.302 354.058 310.276 354.058H309.1V357.516H307.28V348.178ZM309.1 349.746V352.49H309.842C310.374 352.49 310.77 352.392 311.032 352.196C311.368 351.934 311.536 351.57 311.536 351.104C311.536 350.646 311.363 350.292 311.018 350.04C310.738 349.844 310.308 349.746 309.73 349.746H309.1ZM316.396 349.34C317.329 348.425 318.529 347.968 319.994 347.968C321.459 347.968 322.654 348.425 323.578 349.34C324.511 350.254 324.978 351.426 324.978 352.854C324.978 354.282 324.511 355.453 323.578 356.368C322.654 357.273 321.459 357.726 319.994 357.726C318.529 357.726 317.329 357.273 316.396 356.368C315.472 355.453 315.01 354.282 315.01 352.854C315.01 351.426 315.472 350.254 316.396 349.34ZM317.754 355.178C318.333 355.775 319.079 356.074 319.994 356.074C320.909 356.074 321.655 355.775 322.234 355.178C322.813 354.571 323.102 353.796 323.102 352.854C323.102 351.911 322.808 351.136 322.22 350.53C321.641 349.923 320.899 349.62 319.994 349.62C319.089 349.62 318.342 349.923 317.754 350.53C317.175 351.136 316.886 351.911 316.886 352.854C316.886 353.796 317.175 354.571 317.754 355.178ZM332.535 348.178V349.746H329.175V351.832H332.395V353.4H329.175V355.948H332.535V357.516H327.355V348.178H332.535ZM336.821 348.178V352.126L340.251 348.178H342.547L338.599 352.49L342.757 357.516H340.349L337.031 353.33L336.821 353.54V357.516H335.001V348.178H336.821ZM349.641 349.746H347.541V357.516H345.721V349.746H343.621V348.178H349.641V349.746ZM352.022 349.34C352.956 348.425 354.155 347.968 355.62 347.968C357.086 347.968 358.28 348.425 359.204 349.34C360.138 350.254 360.604 351.426 360.604 352.854C360.604 354.282 360.138 355.453 359.204 356.368C358.28 357.273 357.086 357.726 355.62 357.726C354.155 357.726 352.956 357.273 352.022 356.368C351.098 355.453 350.636 354.282 350.636 352.854C350.636 351.426 351.098 350.254 352.022 349.34ZM353.38 355.178C353.959 355.775 354.706 356.074 355.62 356.074C356.535 356.074 357.282 355.775 357.86 355.178C358.439 354.571 358.728 353.796 358.728 352.854C358.728 351.911 358.434 351.136 357.846 350.53C357.268 349.923 356.526 349.62 355.62 349.62C354.715 349.62 353.968 349.923 353.38 350.53C352.802 351.136 352.512 351.911 352.512 352.854C352.512 353.796 352.802 354.571 353.38 355.178ZM362.982 348.178H365.292C366.309 348.178 367.07 348.374 367.574 348.766C368.152 349.214 368.442 349.858 368.442 350.698C368.442 351.528 368.092 352.14 367.392 352.532C367.868 352.606 368.274 352.802 368.61 353.12C369.058 353.549 369.282 354.132 369.282 354.87C369.282 355.654 369.016 356.284 368.484 356.76C367.914 357.264 367.126 357.516 366.118 357.516H362.982V348.178ZM364.802 349.662V352.056H365.32C365.413 352.056 365.497 352.056 365.572 352.056C365.656 352.046 365.772 352.018 365.922 351.972C366.08 351.925 366.211 351.864 366.314 351.79C366.426 351.706 366.524 351.584 366.608 351.426C366.692 351.258 366.734 351.062 366.734 350.838C366.734 350.436 366.603 350.142 366.342 349.956C366.08 349.76 365.744 349.662 365.334 349.662H364.802ZM364.802 353.456V356.032H365.586C366.127 356.032 366.542 355.948 366.832 355.78C367.214 355.556 367.406 355.196 367.406 354.702C367.406 354.198 367.177 353.843 366.72 353.638C366.458 353.516 366.043 353.456 365.474 353.456H364.802Z" fill="#005C87"/>
<path d="M349.96 114.178H356.316V123.516H354.496V115.746H351.78V119.89C351.78 120.244 351.775 120.51 351.766 120.688C351.757 120.865 351.724 121.117 351.668 121.444C351.612 121.77 351.509 122.06 351.36 122.312C351.211 122.554 351.015 122.778 350.772 122.984C350.287 123.394 349.666 123.6 348.91 123.6C348.649 123.6 348.392 123.572 348.14 123.516V121.948C348.327 122.004 348.499 122.032 348.658 122.032C348.994 122.032 349.274 121.92 349.498 121.696C349.647 121.546 349.755 121.341 349.82 121.08C349.895 120.818 349.937 120.594 349.946 120.408C349.955 120.221 349.96 119.927 349.96 119.526V114.178ZM364.323 114.178V115.746H360.963V117.832H364.183V119.4H360.963V121.948H364.323V123.516H359.143V114.178H364.323ZM372.129 115.746H370.029V123.516H368.209V115.746H366.109V114.178H372.129V115.746Z" fill="#312684"/>
<path d="M21.064 400.178H22.884V406.394L28.008 400.178H29.296V409.516H27.476V403.272L22.352 409.516H21.064V400.178ZM33.9473 400.178V403.79H37.8953V400.178H39.7153V409.516H37.8953V405.358H33.9473V409.516H32.1273V400.178H33.9473ZM42.548 400.178H44.858C45.8753 400.178 46.636 400.374 47.14 400.766C47.7187 401.214 48.008 401.858 48.008 402.698C48.008 403.528 47.658 404.14 46.958 404.532C47.434 404.606 47.84 404.802 48.176 405.12C48.624 405.549 48.848 406.132 48.848 406.87C48.848 407.654 48.582 408.284 48.05 408.76C47.4807 409.264 46.692 409.516 45.684 409.516H42.548V400.178ZM44.368 401.662V404.056H44.886C44.9793 404.056 45.0633 404.056 45.138 404.056C45.222 404.046 45.3387 404.018 45.488 403.972C45.6467 403.925 45.7773 403.864 45.88 403.79C45.992 403.706 46.09 403.584 46.174 403.426C46.258 403.258 46.3 403.062 46.3 402.838C46.3 402.436 46.1693 402.142 45.908 401.956C45.6467 401.76 45.3107 401.662 44.9 401.662H44.368ZM44.368 405.456V408.032H45.152C45.6933 408.032 46.1087 407.948 46.398 407.78C46.7807 407.556 46.972 407.196 46.972 406.702C46.972 406.198 46.7433 405.843 46.286 405.638C46.0247 405.516 45.6093 405.456 45.04 405.456H44.368ZM56.4124 400.178V401.746H53.0524V403.832H56.2724V405.4H53.0524V407.948H56.4124V409.516H51.2324V400.178H56.4124ZM65.6537 407.052V409.18C64.963 409.544 64.193 409.726 63.3437 409.726C61.981 409.726 60.8423 409.292 59.9277 408.424C58.929 407.462 58.4297 406.272 58.4297 404.854C58.4297 403.342 58.929 402.124 59.9277 401.2C60.805 400.378 61.9483 399.968 63.3577 399.968C64.179 399.968 64.9443 400.159 65.6537 400.542V402.67C65.047 401.97 64.2957 401.62 63.3997 401.62C62.485 401.62 61.7383 401.942 61.1597 402.586C60.5903 403.22 60.3057 403.986 60.3057 404.882C60.3057 405.862 60.623 406.641 61.2577 407.22C61.8923 407.789 62.6297 408.074 63.4697 408.074C64.347 408.074 65.075 407.733 65.6537 407.052ZM73.5181 401.746H71.4181V409.516H69.5981V401.746H67.4981V400.178H73.5181V401.746ZM75.8993 401.34C76.8326 400.425 78.0319 399.968 79.4973 399.968C80.9626 399.968 82.1573 400.425 83.0813 401.34C84.0146 402.254 84.4813 403.426 84.4813 404.854C84.4813 406.282 84.0146 407.453 83.0813 408.368C82.1573 409.273 80.9626 409.726 79.4973 409.726C78.0319 409.726 76.8326 409.273 75.8993 408.368C74.9753 407.453 74.5133 406.282 74.5133 404.854C74.5133 403.426 74.9753 402.254 75.8993 401.34ZM77.2573 407.178C77.8359 407.775 78.5826 408.074 79.4973 408.074C80.4119 408.074 81.1586 407.775 81.7373 407.178C82.3159 406.571 82.6053 405.796 82.6053 404.854C82.6053 403.911 82.3113 403.136 81.7233 402.53C81.1446 401.923 80.4026 401.62 79.4973 401.62C78.5919 401.62 77.8453 401.923 77.2573 402.53C76.6786 403.136 76.3893 403.911 76.3893 404.854C76.3893 405.796 76.6786 406.571 77.2573 407.178ZM86.8585 400.178H89.5745C90.1532 400.178 90.6245 400.229 90.9885 400.332C91.3619 400.425 91.7119 400.612 92.0385 400.892C92.6732 401.452 92.9905 402.203 92.9905 403.146C92.9905 404.023 92.7339 404.718 92.2205 405.232C91.6699 405.782 90.8812 406.058 89.8545 406.058H88.6785V409.516H86.8585V400.178ZM88.6785 401.746V404.49H89.4205C89.9525 404.49 90.3492 404.392 90.6105 404.196C90.9465 403.934 91.1145 403.57 91.1145 403.104C91.1145 402.646 90.9419 402.292 90.5965 402.04C90.3165 401.844 89.8872 401.746 89.3085 401.746H88.6785ZM100.791 409.516L99.9655 407.556H96.1995L95.3735 409.516H93.3995L97.4175 400.178H98.8455L102.751 409.516H100.791ZM96.7735 406.072H99.4335L98.1035 402.712L96.7735 406.072Z" fill="#019CE5"/>
<path d="M212 115C212 115 198.262 130.85 182.126 148.13C181.253 147.25 180.49 146.369 179.618 145.599C172.422 138.114 164.79 131.73 157.485 126.667C163.372 131.4 169.478 137.123 175.257 143.728C177.11 145.819 178.855 147.8 180.49 149.891C170.023 161.008 158.902 172.565 149.961 180.6C147.563 178.289 145.273 175.757 142.874 173.225C121.941 149.671 111.256 124.356 118.124 115C117.688 115.33 117.252 115.66 116.925 116.101C107.657 125.456 120.741 153.854 146.145 179.499C147.018 180.38 147.781 181.15 148.653 181.921C146.472 183.902 144.401 185.553 142.547 186.984C125.539 199.752 116.598 190.176 113 184.012C113.327 188.415 114.308 192.928 116.053 197.33C117.47 200.742 119.215 203.824 121.177 206.576C123.031 209.107 125.648 210.979 128.7 211.639C132.407 212.519 136.878 211.859 142.111 208.887C147.999 205.695 154.432 199.862 160.865 192.817C181.58 209.327 201.424 216.482 208.838 208.997C217.015 200.742 207.966 177.958 188.558 155.285C202.187 134.042 212 115 212 115ZM199.134 203.054C192.811 208.887 178.091 203.714 162.282 191.276C170.786 181.591 179.291 169.593 186.814 158.036C200.77 177.848 206.33 196.45 199.134 203.054Z" fill="url(#paint0_linear_0_1)"/>
<path d="M3.99999 162.5C3.99998 128.603 14.8668 95.5995 35.0051 68.3336C55.1434 41.0677 83.4924 20.976 115.89 11.0081C148.288 1.04024 183.028 1.72123 215.011 12.9511C246.993 24.181 274.533 45.3682 293.587 73.4024C312.642 101.437 322.207 134.841 320.878 168.712C319.55 202.582 307.398 235.135 286.207 261.591C265.015 288.046 235.901 307.012 203.137 315.702C170.373 324.393 135.687 322.351 104.169 309.876" stroke="url(#paint1_linear_0_1)" stroke-width="7" stroke-linecap="round"/>
<path d="M48 162.5C48 144.15 52.4104 126.068 60.8596 109.779C69.3089 93.4899 81.5494 79.47 96.55 68.9006C111.551 58.3312 128.872 51.522 147.054 49.0466C165.237 46.5712 183.748 48.5021 201.028 54.6768C218.308 60.8514 233.851 71.0888 246.347 84.5265C258.844 97.9641 267.927 114.208 272.833 131.891C277.738 149.573 278.322 168.175 274.535 186.131C270.748 204.086 262.701 220.868 251.072 235.063" stroke="url(#paint2_linear_0_1)" stroke-width="7" stroke-linecap="round"/>
<path d="M64.9996 162.5C64.9996 142.296 71.2761 122.591 82.9615 106.109C94.6468 89.6272 111.164 77.1825 130.229 70.4954C149.294 63.8082 169.966 63.209 189.387 68.7805C208.807 74.352 226.017 85.8191 238.638 101.596" stroke="url(#paint3_linear_0_1)" stroke-width="7" stroke-linecap="round"/>
<circle cx="238" cy="103" r="6" fill="#312684"/>
<circle cx="250" cy="236" r="6" fill="#005C87"/>
<circle cx="102" cy="309" r="6" fill="#019CE5"/>
<defs>
<linearGradient id="paint0_linear_0_1" x1="212" y1="115" x2="113" y2="212" gradientUnits="userSpaceOnUse">
<stop stop-color="#019CE5"/>
<stop offset="1" stop-color="#312684"/>
</linearGradient>
<linearGradient id="paint1_linear_0_1" x1="4.00001" y1="163" x2="102.5" y2="312.5" gradientUnits="userSpaceOnUse">
<stop stop-color="#312684"/>
<stop offset="1" stop-color="#019CE5"/>
</linearGradient>
<linearGradient id="paint2_linear_0_1" x1="48" y1="163.5" x2="251.5" y2="235" gradientUnits="userSpaceOnUse">
<stop stop-color="#019CE5"/>
<stop offset="1" stop-color="#005C87"/>
</linearGradient>
<linearGradient id="paint3_linear_0_1" x1="239" y1="103.5" x2="65" y2="163" gradientUnits="userSpaceOnUse">
<stop stop-color="#312684"/>
<stop offset="1" stop-color="#6558CA"/>
</linearGradient>
</defs>
</svg>
