<svg width="16" height="14" viewBox="0 0 16 14" fill="none" xmlns="http://www.w3.org/2000/svg">
<path d="M14.525 1.87217C13.9168 1.4586 13.0897 1.81135 12.8951 2.51686C12.7004 3.19805 12.4207 3.42916 11.8855 3.417C11.2043 3.40483 10.961 3.02775 10.7664 1.67755H4.80604C4.69656 2.96693 4.39247 3.417 3.67479 3.417C3.13958 3.417 2.84764 3.17372 2.67735 2.51686C2.49489 1.81135 1.65558 1.47076 1.05954 1.88434C0.670295 2.13978 0.5 2.62634 0.5 3.35618C0.5 6.21471 0.5 9.07324 0.5 11.9318C0.5 13.1117 0.974394 13.5982 2.1543 13.5982C5.9008 13.5982 9.64729 13.5982 13.3938 13.5982C14.598 13.5982 15.0846 13.1117 15.0846 11.8953C15.0846 9.06107 15.0846 6.21471 15.0846 3.3805C15.0846 2.6385 14.9021 2.13978 14.525 1.87217ZM13.1627 12.6373C9.57431 12.6373 5.98594 12.6373 2.39758 12.6373C1.64341 12.6373 1.46095 12.467 1.46095 11.7128C1.46095 9.64494 1.46095 7.57707 1.46095 5.5092C1.46095 5.35107 1.47312 5.19293 1.48528 4.98615H14.075C14.0871 5.19293 14.1115 5.39972 14.1115 5.59434C14.1115 7.62573 14.1115 9.64494 14.1115 11.6763C14.1236 12.467 13.9412 12.6373 13.1627 12.6373Z" fill="white"/>
<path d="M7.2388 6.51935C6.64277 6.51935 6.08322 6.51935 5.52368 6.51935C5.52368 7.10322 5.52368 7.6506 5.52368 8.23447C6.13188 8.23447 6.67926 8.23447 7.2388 8.23447C7.2388 7.6506 7.2388 7.09105 7.2388 6.51935Z" fill="white"/>
<path d="M10.0487 6.51935C9.45262 6.51935 8.89308 6.51935 8.3457 6.51935C8.3457 7.11538 8.3457 7.66276 8.3457 8.24663C8.92957 8.24663 9.46479 8.24663 10.0487 8.24663C10.0487 7.63843 10.0487 7.07889 10.0487 6.51935Z" fill="white"/>
<path d="M12.8708 6.51935C12.287 6.51935 11.7274 6.51935 11.1436 6.51935C11.1436 7.12755 11.1436 7.67492 11.1436 8.21014C11.7518 8.21014 12.3113 8.21014 12.8708 8.21014C12.8708 7.6141 12.8708 7.07889 12.8708 6.51935Z" fill="white"/>
<path d="M11.1436 11.0559C11.7396 11.0559 12.2991 11.0559 12.883 11.0559C12.883 10.4599 12.883 9.9368 12.883 9.37726C12.287 9.37726 11.7153 9.37726 11.1436 9.37726C11.1436 9.96113 11.1436 10.4963 11.1436 11.0559Z" fill="white"/>
<path d="M5.53589 11.0565C6.14409 11.0565 6.69146 11.0565 7.23884 11.0565C7.23884 10.4605 7.23884 9.92526 7.23884 9.36572C6.64281 9.36572 6.09543 9.36572 5.53589 9.36572C5.53589 9.96176 5.53589 10.5213 5.53589 11.0565Z" fill="white"/>
<path d="M8.3457 11.0572C8.94174 11.0572 9.50128 11.0572 10.0608 11.0572C10.0608 10.4733 10.0608 9.92595 10.0608 9.35425C9.48911 9.35425 8.94174 9.35425 8.3457 9.35425C8.3457 9.96245 8.3457 10.5098 8.3457 11.0572Z" fill="white"/>
<path d="M2.71387 11.0808C3.28557 11.0808 3.82079 11.0808 4.41682 11.0808C4.41682 10.4848 4.41682 9.92526 4.41682 9.36572C3.83295 9.36572 3.28557 9.36572 2.71387 9.36572C2.71387 9.96176 2.71387 10.5091 2.71387 11.0808Z" fill="white"/>
<path d="M3.67503 3.11309C4.05212 3.11309 4.36838 2.45623 4.36838 1.62908C4.36838 0.801934 4.06428 0.145081 3.67503 0.145081C3.29795 0.145081 2.98169 0.801934 2.98169 1.62908C2.98169 2.45623 3.28579 3.11309 3.67503 3.11309Z" fill="white"/>
<path d="M11.8977 3.11309C12.2748 3.11309 12.591 2.45623 12.591 1.62908C12.591 0.801934 12.2869 0.145081 11.8977 0.145081C11.5206 0.145081 11.2043 0.801934 11.2043 1.62908C11.2043 2.45623 11.5206 3.11309 11.8977 3.11309Z" fill="white"/>
</svg>
