<svg width="12" height="17" viewBox="0 0 12 17" fill="none" xmlns="http://www.w3.org/2000/svg">
<path d="M5.54169 14.1189C5.80929 14.423 6.12556 14.3744 6.381 14.0703C7.45143 12.7444 8.57051 11.4672 9.54363 10.0805C10.4681 8.77895 11.052 7.30711 11.0641 5.66498C11.0763 3.0254 9.13005 0.811559 6.56346 0.531788C3.8509 0.239853 1.49109 1.90631 0.919383 4.52156C0.651776 5.75012 0.8464 6.94219 1.29647 8.09777C2.20876 10.4576 3.89955 12.27 5.54169 14.1189ZM5.96742 2.53884C7.64605 2.551 9.00841 3.92553 9.02058 5.61632C9.03274 7.31927 7.64605 8.71813 5.9431 8.71813C4.22798 8.71813 2.85345 7.33144 2.86562 5.61632C2.86562 3.88904 4.26447 2.51451 5.96742 2.53884Z" fill="white"/>
<path d="M10.7965 13.6329C10.2492 13.3532 9.61664 13.2315 9.00844 13.0734C8.85031 13.0369 8.65569 13.1464 8.47323 13.1829C8.6192 13.2924 8.74084 13.4383 8.89897 13.5113C9.38553 13.7181 9.88425 13.9006 10.4438 14.1195C9.09359 15.3602 2.85348 15.3724 1.39381 14.1073C2.05066 13.8641 2.59804 13.6694 3.12109 13.4627C3.23056 13.414 3.30355 13.2924 3.3887 13.195C3.27922 13.1464 3.14542 13.0248 3.0481 13.0491C2.36692 13.2315 1.64925 13.3532 1.04105 13.6573C0.311214 14.0222 0.335543 14.7399 1.01672 15.2021C1.28433 15.3846 1.58843 15.5184 1.89253 15.6157C4.28883 16.4063 6.72162 16.3942 9.15441 15.859C9.73828 15.7252 10.3222 15.5062 10.8452 15.2021C11.5629 14.7885 11.5507 14.01 10.7965 13.6329Z" fill="white"/>
</svg>
