<svg width="99" height="97" viewBox="0 0 99 97" fill="none" xmlns="http://www.w3.org/2000/svg">
<path d="M99 0C99 0 85.2621 15.8497 69.1255 33.1302C68.2533 32.2497 67.4901 31.3691 66.6178 30.5987C59.4218 23.1141 51.7896 16.7302 44.4846 11.6671C50.3722 16.4 56.478 22.1235 62.2566 28.7275C64.1101 30.8188 65.8546 32.8 67.4901 34.8913C57.0231 46.008 45.902 57.5651 36.9615 65.6C34.5628 63.2886 32.2731 60.757 29.8744 58.2255C8.94053 34.6711 -1.74449 9.3557 5.12445 0C4.68833 0.330201 4.2522 0.660403 3.92511 1.10067C-5.34251 10.4564 7.74119 38.8537 33.1454 64.4993C34.0176 65.3799 34.7808 66.1503 35.6531 66.9208C33.4725 68.902 31.4009 70.553 29.5474 71.9839C12.5385 84.7517 3.59802 75.1758 0 69.0121C0.327092 73.4148 1.30837 77.9275 3.05286 82.3302C4.47026 85.7423 6.21476 88.8241 8.17731 91.5758C10.0308 94.1074 12.6476 95.9785 15.7004 96.6389C19.4075 97.5194 23.8778 96.859 29.1112 93.8872C34.9989 90.6953 41.4317 84.8617 47.8645 77.8174C68.5804 94.3275 88.424 101.482 95.8381 93.9973C104.015 85.7423 94.9659 62.9584 75.5584 40.2846C89.1872 19.0416 99 0 99 0ZM86.1344 88.0537C79.8106 93.8872 65.0914 88.7141 49.2819 76.2765C57.7863 66.5906 66.2907 54.5933 73.8139 43.0362C87.7698 62.8483 93.3304 81.4496 86.1344 88.0537Z" fill="url(#paint0_linear_159_326)"/>
<defs>
<linearGradient id="paint0_linear_159_326" x1="99" y1="-3.01126e-06" x2="5.93427e-06" y2="97" gradientUnits="userSpaceOnUse">
<stop stop-color="#019CE5"/>
<stop offset="1" stop-color="#312684"/>
</linearGradient>
</defs>
</svg>
