<svg width="190" height="56" viewBox="0 0 190 56" fill="none" xmlns="http://www.w3.org/2000/svg">
<g filter="url(#filter0_f_55_190)">
<path d="M31.0916 19.1047C32.2986 18.8213 32.9485 19.8334 33.4127 20.7241C36.4766 26.0276 39.5872 31.4121 42.5118 36.7966C42.8367 37.4039 42.8366 38.4968 42.4189 38.9826C41.7226 39.8327 40.6085 39.428 39.7265 38.8612C38.1481 37.8896 36.5234 36.9989 34.945 36.0273C32.5311 34.5698 32.4845 33.5982 34.8983 31.655C33.6914 29.5498 32.5309 27.5255 31.1383 25.056C29.7457 27.5256 28.5849 29.6308 27.4707 31.655C29.8847 33.8412 29.7919 34.6506 27.0065 36.27C25.6139 37.0797 24.1749 37.8895 22.7823 38.7801C21.8538 39.3469 20.879 39.9137 19.8577 39.1447C18.8364 38.3754 19.3935 37.4441 19.8577 36.5535C21.4361 33.7196 23.0144 30.8452 24.6392 28.0114C25.9854 25.5823 27.2853 23.1532 28.8172 20.8051C29.2814 20.0765 30.2096 19.3072 31.0916 19.1047Z" fill="white"/>
<path d="M31.0454 13.2747C32.5309 13.2343 33.5988 14.125 33.5524 15.38C33.5524 16.6755 32.5775 17.4449 30.9991 17.3639C29.6065 17.3235 28.7242 16.5135 28.7242 15.299C28.7243 14.125 29.6992 13.2748 31.0454 13.2747Z" fill="white"/>
<path fill-rule="evenodd" clip-rule="evenodd" d="M30.5825 7C44.5093 7 55.4185 16.1902 55.3256 28.0117C55.2327 40.6428 43.3953 49.3875 31.0934 48.9828C19.5807 49.4281 7.04661 41.2097 6.95371 27.9307C6.86087 16.5545 17.8163 7.00004 30.5825 7ZM31.3255 10.2791C20.3698 10.1172 11.1314 17.9714 10.76 27.4448C10.3886 36.3919 18.2806 45.5011 30.5825 45.825C41.7239 46.1489 51.148 38.1732 51.5193 28.7807C51.9835 19.2669 43.1632 10.3602 31.3255 10.2791Z" fill="white"/>
<path d="M72.7266 13.9299V12.5217H70.6909C70.4487 12.5217 70.2815 12.5552 70.1892 12.6223C70.097 12.686 70.0508 12.7916 70.0508 12.9391V13.5074C70.0508 13.6683 70.097 13.779 70.1892 13.8393C70.2815 13.8997 70.4487 13.9299 70.6909 13.9299H72.7266ZM76.8211 13.5074V12.9391C76.8211 12.7916 76.775 12.686 76.6827 12.6223C76.5904 12.5552 76.4232 12.5217 76.181 12.5217H74.1453V13.9299H76.181C76.4232 13.9299 76.5904 13.8997 76.6827 13.8393C76.775 13.779 76.8211 13.6683 76.8211 13.5074ZM70.0624 11.6013H76.8096C77.294 11.6013 77.6439 11.6835 77.8591 11.8478C78.0783 12.0087 78.1879 12.2702 78.1879 12.6323V13.8192C78.1879 14.1746 78.0783 14.4345 77.8591 14.5987C77.6439 14.763 77.294 14.8452 76.8096 14.8452H74.1453V16.9172H72.7266V14.8452H70.0624C69.5779 14.8452 69.2262 14.763 69.007 14.5987C68.7917 14.4345 68.6841 14.1746 68.6841 13.8192V12.6323C68.6841 12.2702 68.7917 12.0087 69.007 11.8478C69.2262 11.6835 69.5779 11.6013 70.0624 11.6013Z" fill="white"/>
<path d="M80.2005 12.8586C80.2005 12.3792 80.3043 12.0506 80.5119 11.8729C80.7234 11.6918 81.1232 11.6013 81.7114 11.6013H86.198C86.7901 11.6013 87.1899 11.6902 87.3975 11.8679C87.6051 12.0456 87.7089 12.3758 87.7089 12.8586V15.6599C87.7089 16.1427 87.6032 16.473 87.3918 16.6507C87.1841 16.8284 86.7862 16.9172 86.198 16.9172H81.7114C81.1232 16.9172 80.7234 16.83 80.5119 16.6557C80.3043 16.478 80.2005 16.1461 80.2005 15.6599V12.8586ZM81.6191 15.9164H86.2961V12.5518H81.6191V15.9164Z" fill="white"/>
<path d="M90.6962 16.9172V11.6013H92.1148V13.6633H96.5438V11.6013H97.9739V16.9172H96.5438V14.6289H92.1148V16.9172H90.6962Z" fill="white"/>
<path d="M102.149 15.9516H106.203L104.196 12.6323L102.149 15.9516ZM100.113 17.6716L100.119 15.9516H100.742L103.562 11.6013H104.929L107.801 15.9516H108.423V17.6716L107.005 17.6666V16.9172H101.526L101.521 17.6666L100.113 17.6716Z" fill="white"/>
<path d="M74.7508 22.1167H70.9274V25.4812H74.7508V24.3396L76.1695 24.5961V25.2247C76.1695 25.7075 76.0637 26.0378 75.8523 26.2155C75.6408 26.3932 75.2429 26.482 74.6585 26.482H71.0197C70.4314 26.482 70.0316 26.3949 69.8202 26.2205C69.6125 26.0428 69.5087 25.7109 69.5087 25.2247V22.4234C69.5087 21.944 69.6125 21.6154 69.8202 21.4377C70.0316 21.2567 70.4314 21.1661 71.0197 21.1661H74.6585C75.2506 21.1661 75.6504 21.255 75.858 21.4327C76.0657 21.6104 76.1695 21.9406 76.1695 22.4234V22.9264L74.7508 23.1225V22.1167Z" fill="white"/>
<path d="M78.9664 22.4234C78.9664 21.944 79.0702 21.6154 79.2778 21.4377C79.4892 21.2567 79.8891 21.1661 80.4773 21.1661H84.9639C85.556 21.1661 85.9558 21.255 86.1634 21.4327C86.371 21.6104 86.4748 21.9406 86.4748 22.4234V25.2247C86.4748 25.7075 86.3691 26.0378 86.1576 26.2155C85.95 26.3932 85.5521 26.482 84.9639 26.482H80.4773C79.8891 26.482 79.4892 26.3949 79.2778 26.2205C79.0702 26.0428 78.9664 25.7109 78.9664 25.2247V22.4234ZM80.385 25.4812H85.0619V22.1167H80.385V25.4812Z" fill="white"/>
<path d="M90.5232 25.5164H94.5773L92.5704 22.1971L90.5232 25.5164ZM88.4875 27.2364L88.4932 25.5164H89.116L91.936 21.1661H93.3028L96.1747 25.5164H96.7975V27.2364L95.3788 27.2314V26.482H89.9003L89.8946 27.2314L88.4875 27.2364Z" fill="white"/>
<path d="M98.8274 26.482V21.1661H105.067V22.0714H100.246V23.2583H103.06V24.1636H100.246V25.4812H105.125V26.482H98.8274Z" fill="white"/>
<path d="M114.859 26.482H113.585V23.6103L113.602 23.2332L113.642 22.7654C113.604 22.809 113.569 22.8442 113.539 22.871C113.523 22.8845 113.483 22.918 113.418 22.9716L113.135 23.1979L108.66 26.482H107.691V21.1661H108.966V23.9574L108.954 24.244L108.908 24.8777C109.004 24.7771 109.104 24.6832 109.208 24.5961C109.315 24.5055 109.446 24.4066 109.6 24.2993L113.89 21.1661H114.859V26.482ZM113.014 19.7127V20.7688L111.278 21.9859L109.531 20.7688V19.7127L111.278 20.8795L113.014 19.7127Z" fill="white"/>
<path d="M123.123 22.1167H119.3V25.4812H123.123V24.3396L124.542 24.5961V25.2247C124.542 25.7075 124.436 26.0378 124.225 26.2155C124.013 26.3932 123.615 26.482 123.031 26.482H119.392C118.804 26.482 118.404 26.3949 118.193 26.2205C117.985 26.0428 117.881 25.7109 117.881 25.2247V22.4234C117.881 21.944 117.985 21.6154 118.193 21.4377C118.404 21.2567 118.804 21.1661 119.392 21.1661H123.031C123.623 21.1661 124.023 21.255 124.23 21.4327C124.438 21.6104 124.542 21.9406 124.542 22.4234V22.9264L123.123 23.1225V22.1167Z" fill="white"/>
<path d="M130.303 22.1167V26.482H128.884V22.1167H126.087V21.1661H133.111V22.1167H130.303Z" fill="white"/>
<path d="M141.485 25.441C141.485 25.7964 141.337 26.0596 141.041 26.2306C140.745 26.3982 140.295 26.482 139.691 26.482H134.847V21.1661H140.072C140.553 21.1661 140.9 21.2483 141.116 21.4126C141.331 21.5735 141.439 21.835 141.439 22.1971V22.8459C141.439 23.0974 141.35 23.3002 141.173 23.4544C140.997 23.6053 140.735 23.7009 140.389 23.7411C140.735 23.7813 141.004 23.8903 141.197 24.068C141.389 24.2457 141.485 24.477 141.485 24.762V25.441ZM140.13 22.9163V22.4134C140.13 22.2793 140.082 22.182 139.985 22.1217C139.893 22.0613 139.724 22.0312 139.478 22.0312H136.243V23.2985H139.478C139.724 23.2985 139.893 23.27 139.985 23.213C140.082 23.156 140.13 23.0571 140.13 22.9163ZM140.164 25.0487V24.6464C140.164 24.472 140.116 24.3496 140.02 24.2792C139.928 24.2088 139.747 24.1736 139.478 24.1736H136.243V25.5265H139.478C139.739 25.5265 139.918 25.4913 140.014 25.4209C140.114 25.3471 140.164 25.2231 140.164 25.0487Z" fill="white"/>
<path d="M151.34 26.482H150.066V23.6103L150.083 23.2332L150.124 22.7654C150.085 22.809 150.051 22.8442 150.02 22.871C150.004 22.8845 149.964 22.918 149.899 22.9716L149.616 23.1979L145.141 26.482H144.172V21.1661H145.447V23.9574L145.435 24.244L145.389 24.8777C145.485 24.7771 145.585 24.6832 145.689 24.5961C145.797 24.5055 145.927 24.4066 146.081 24.2993L150.372 21.1661H151.34V26.482Z" fill="white"/>
<path d="M160.925 26.482H159.529V24.4754H158.186L155.729 26.482H153.693L156.508 24.4754H155.712C155.231 24.4754 154.881 24.3932 154.662 24.2289C154.443 24.0613 154.333 23.7998 154.333 23.4444V22.1971C154.333 21.835 154.441 21.5735 154.656 21.4126C154.875 21.2483 155.227 21.1661 155.712 21.1661H160.925V26.482ZM159.529 23.5651V22.0865H156.34C156.098 22.0865 155.931 22.12 155.839 22.1871C155.746 22.2508 155.7 22.3564 155.7 22.5039V23.1426C155.7 23.3036 155.746 23.4142 155.839 23.4746C155.931 23.5349 156.098 23.5651 156.34 23.5651H159.529Z" fill="white"/>
<path d="M74.2203 31.6513H71.0312V33.0595H74.2203C74.4625 33.0595 74.6297 33.0293 74.722 32.969C74.8142 32.9086 74.8604 32.798 74.8604 32.637V32.0687C74.8604 31.9212 74.8142 31.8156 74.722 31.7519C74.6297 31.6848 74.4625 31.6513 74.2203 31.6513ZM69.6356 36.0469V30.731H74.8488C75.3333 30.731 75.6831 30.8131 75.8984 30.9774C76.1176 31.1383 76.2271 31.3998 76.2271 31.7619V32.9488C76.2271 33.3042 76.1176 33.5641 75.8984 33.7284C75.6831 33.8927 75.3333 33.9748 74.8488 33.9748H71.0312V36.0469H69.6356Z" fill="white"/>
<path d="M79.9756 33.9245H82.6456L81.3308 31.7619L79.9756 33.9245ZM77.2479 36.0469L80.6964 30.731H82.0632L85.5579 36.0469H83.9662L83.2339 34.8851H79.3701L78.6607 36.0469H77.2479Z" fill="white"/>
<path d="M88.6605 36.0469C88.1107 36.0469 87.7397 35.9731 87.5475 35.8256C87.3591 35.678 87.2649 35.4048 87.2649 35.0058V34.5733L88.5163 34.347V35.0913H91.8034C92.0379 35.0913 92.1936 35.0611 92.2705 35.0008C92.3513 34.9371 92.3916 34.808 92.3916 34.6135V34.2263C92.3916 34.0385 92.3493 33.9111 92.2647 33.8441C92.184 33.7736 92.0302 33.7384 91.8034 33.7384H89.7446V32.8734H91.5785C91.8092 32.8734 91.9629 32.8432 92.0398 32.7829C92.1167 32.7192 92.1552 32.5884 92.1552 32.3906V32.1241C92.1552 31.9262 92.1148 31.7955 92.0341 31.7318C91.9572 31.6681 91.8053 31.6362 91.5785 31.6362H88.5682V32.3001L87.3629 32.1039V31.772C87.3629 31.3764 87.4571 31.1048 87.6455 30.9573C87.8339 30.8064 88.203 30.731 88.7527 30.731H92.0514C92.605 30.731 92.9741 30.8047 93.1586 30.9522C93.347 31.0998 93.4412 31.373 93.4412 31.772V32.2548C93.4412 32.5666 93.3547 32.798 93.1817 32.9488C93.0087 33.0997 92.703 33.2053 92.2647 33.2657C92.753 33.3059 93.1106 33.4132 93.3374 33.5876C93.5642 33.7586 93.6776 34.0117 93.6776 34.347V34.9052C93.6776 35.3377 93.57 35.6361 93.3547 35.8004C93.1394 35.9647 92.7549 36.0469 92.2013 36.0469H88.6605Z" fill="white"/>
<path d="M103.297 35.0058C103.297 35.3612 103.149 35.6244 102.853 35.7954C102.557 35.963 102.107 36.0469 101.503 36.0469H96.6591V30.731H101.884C102.364 30.731 102.712 30.8131 102.928 30.9774C103.143 31.1383 103.251 31.3998 103.251 31.7619V32.4107C103.251 32.6622 103.162 32.865 102.985 33.0193C102.808 33.1701 102.547 33.2657 102.201 33.3059C102.547 33.3462 102.816 33.4551 103.008 33.6328C103.201 33.8105 103.297 34.0419 103.297 34.3269V35.0058ZM101.942 32.4811V31.9782C101.942 31.8441 101.893 31.7469 101.797 31.6865C101.705 31.6262 101.536 31.596 101.29 31.596H98.0547V32.8633H101.29C101.536 32.8633 101.705 32.8349 101.797 32.7779C101.893 32.7209 101.942 32.6219 101.942 32.4811ZM101.976 34.6135V34.2112C101.976 34.0368 101.928 33.9145 101.832 33.8441C101.74 33.7736 101.559 33.7384 101.29 33.7384H98.0547V35.0913H101.29C101.551 35.0913 101.73 35.0561 101.826 34.9857C101.926 34.9119 101.976 34.7879 101.976 34.6135Z" fill="white"/>
<path d="M113.152 36.0469H111.878V33.1752L111.895 32.798L111.935 32.3302C111.897 32.3738 111.862 32.409 111.832 32.4359C111.816 32.4493 111.776 32.4828 111.711 32.5364L111.428 32.7628L106.953 36.0469H105.984V30.731H107.259V33.5222L107.247 33.8088L107.201 34.4425C107.297 34.3419 107.397 34.2481 107.501 34.1609C107.608 34.0704 107.739 33.9715 107.893 33.8642L112.183 30.731H113.152V36.0469Z" fill="white"/>
<path d="M119.138 31.6815V36.0469H117.72V31.6815H114.923V30.731H121.947V31.6815H119.138Z" fill="white"/>
<path d="M130.799 36.0469H129.524V33.1752L129.542 32.798L129.582 32.3302C129.544 32.3738 129.509 32.409 129.478 32.4359C129.463 32.4493 129.423 32.4828 129.357 32.5364L129.075 32.7628L124.599 36.0469H123.631V30.731H124.905V33.5222L124.894 33.8088L124.847 34.4425C124.944 34.3419 125.044 34.2481 125.147 34.1609C125.255 34.0704 125.386 33.9715 125.539 33.8642L129.83 30.731H130.799V36.0469Z" fill="white"/>
<path d="M138.18 35.046H142.857V31.6815H138.18V35.046ZM135.366 33.7535V36.0469H133.948V30.731H135.366V32.7879H136.762V31.9883C136.762 31.5088 136.866 31.1802 137.073 31.0025C137.285 30.8215 137.684 30.731 138.273 30.731H142.759C143.351 30.731 143.751 30.8198 143.959 30.9975C144.166 31.1752 144.27 31.5055 144.27 31.9883V34.7895C144.27 35.2724 144.165 35.6026 143.953 35.7803C143.745 35.958 143.348 36.0469 142.759 36.0469H138.273C137.684 36.0469 137.285 35.9597 137.073 35.7853C136.866 35.6076 136.762 35.2757 136.762 34.7895V33.7535H135.366Z" fill="white"/>
<path d="M69.6356 45.6117V40.2958H71.0658V42.5137L74.4452 40.2958H76.4982L72.4614 42.8003L76.9941 45.6117H74.7162L71.0658 43.2731V45.6117H69.6356Z" fill="white"/>
<path d="M78.8856 41.5531C78.8856 41.0736 78.9895 40.7451 79.1971 40.5674C79.4085 40.3863 79.8083 40.2958 80.3966 40.2958H84.8832C85.4752 40.2958 85.8751 40.3846 86.0827 40.5623C86.2903 40.74 86.3941 41.0703 86.3941 41.5531V44.3544C86.3941 44.8372 86.2884 45.1674 86.0769 45.3451C85.8693 45.5228 85.4714 45.6117 84.8832 45.6117H80.3966C79.8083 45.6117 79.4085 45.5245 79.1971 45.3502C78.9895 45.1725 78.8856 44.8405 78.8856 44.3544V41.5531ZM80.3043 44.6109H84.9812V41.2463H80.3043V44.6109Z" fill="white"/>
<path d="M94.4965 41.2463H90.6731V44.6109H94.4965V43.4692L95.9152 43.7257V44.3544C95.9152 44.8372 95.8094 45.1674 95.598 45.3451C95.3865 45.5228 94.9886 45.6117 94.4042 45.6117H90.7654C90.1771 45.6117 89.7773 45.5245 89.5659 45.3502C89.3583 45.1725 89.2545 44.8405 89.2545 44.3544V41.5531C89.2545 41.0736 89.3583 40.7451 89.5659 40.5674C89.7773 40.3863 90.1771 40.2958 90.7654 40.2958H94.4042C94.9963 40.2958 95.3961 40.3846 95.6038 40.5623C95.8114 40.74 95.9152 41.0703 95.9152 41.5531V42.056L94.4965 42.2521V41.2463Z" fill="white"/>
<path d="M98.8274 45.6117V40.2958H99.975L102.847 43.5095L105.655 40.2958H106.791V45.6117H105.477V42.3276L105.488 42.0862L105.529 41.7593L105.327 42.1013L105.171 42.3175L102.882 44.973H102.599L100.304 42.3075L100.085 42.0258L99.9404 41.7643L99.9635 42.0661L99.975 42.3276V45.6117H98.8274Z" fill="white"/>
<path d="M109.646 41.5531C109.646 41.0736 109.75 40.7451 109.957 40.5674C110.169 40.3863 110.569 40.2958 111.157 40.2958H115.644C116.236 40.2958 116.635 40.3846 116.843 40.5623C117.051 40.74 117.154 41.0703 117.154 41.5531V44.3544C117.154 44.8372 117.049 45.1674 116.837 45.3451C116.63 45.5228 116.232 45.6117 115.644 45.6117H111.157C110.569 45.6117 110.169 45.5245 109.957 45.3502C109.75 45.1725 109.646 44.8405 109.646 44.3544V41.5531ZM111.065 44.6109H115.742V41.2463H111.065V44.6109Z" fill="white"/>
<path d="M120.142 45.6117V40.2958H121.56V42.3578H125.989V40.2958H127.419V45.6117H125.989V43.3234H121.56V45.6117H120.142Z" fill="white"/>
<path d="M132.096 43.4893H134.766L133.452 41.3268L132.096 43.4893ZM129.369 45.6117L132.817 40.2958H134.184L137.679 45.6117H136.087L135.355 44.4499H131.491L130.782 45.6117H129.369Z" fill="white"/>
<path d="M146.283 44.5706C146.283 44.926 146.135 45.1892 145.839 45.3602C145.543 45.5279 145.093 45.6117 144.489 45.6117H139.645V40.2958H144.87C145.351 40.2958 145.698 40.3779 145.914 40.5422C146.129 40.7031 146.237 40.9647 146.237 41.3268V41.9755C146.237 42.227 146.148 42.4298 145.971 42.5841C145.795 42.735 145.533 42.8305 145.187 42.8707C145.533 42.911 145.802 43.0199 145.995 43.1976C146.187 43.3753 146.283 43.6067 146.283 43.8917V44.5706ZM144.928 42.0459V41.543C144.928 41.4089 144.88 41.3117 144.783 41.2513C144.691 41.191 144.522 41.1608 144.276 41.1608H141.041V42.4282H144.276C144.522 42.4282 144.691 42.3997 144.783 42.3427C144.88 42.2857 144.928 42.1868 144.928 42.0459ZM144.962 44.1783V43.776C144.962 43.6017 144.914 43.4793 144.818 43.4089C144.726 43.3385 144.545 43.3033 144.276 43.3033H141.041V44.6561H144.276C144.537 44.6561 144.716 44.6209 144.812 44.5505C144.912 44.4767 144.962 44.3527 144.962 44.1783Z" fill="white"/>
<path d="M151.859 41.2463V45.6117H150.441V41.2463H147.644V40.2958H154.668V41.2463H151.859Z" fill="white"/>
<path d="M163.52 45.6117H162.246V42.74L162.263 42.3628L162.303 41.8951C162.265 41.9387 162.23 41.9739 162.199 42.0007C162.184 42.0141 162.144 42.0476 162.078 42.1013L161.796 42.3276L157.321 45.6117H156.352V40.2958H157.626V43.087L157.615 43.3737L157.569 44.0073C157.665 43.9068 157.765 43.8129 157.868 43.7257C157.976 43.6352 158.107 43.5363 158.261 43.429L162.551 40.2958H163.52V45.6117Z" fill="white"/>
<path d="M166.669 45.6117V40.2958H168.099V42.5137L171.478 40.2958H173.531L169.494 42.8003L174.027 45.6117H171.749L168.099 43.2731V45.6117H166.669Z" fill="white"/>
<path d="M183.162 45.6117H181.887V42.74L181.905 42.3628L181.945 41.8951C181.907 41.9387 181.872 41.9739 181.841 42.0007C181.826 42.0141 181.786 42.0476 181.72 42.1013L181.438 42.3276L176.963 45.6117H175.994V40.2958H177.268V43.087L177.257 43.3737L177.211 44.0073C177.307 43.9068 177.407 43.8129 177.51 43.7257C177.618 43.6352 177.749 43.5363 177.903 43.429L182.193 40.2958H183.162V45.6117Z" fill="white"/>
</g>
<path d="M31.0916 19.1047C32.2986 18.8213 32.9485 19.8334 33.4127 20.7241C36.4766 26.0276 39.5872 31.4121 42.5118 36.7966C42.8367 37.4039 42.8366 38.4968 42.4189 38.9826C41.7226 39.8327 40.6085 39.428 39.7265 38.8612C38.1481 37.8896 36.5234 36.9989 34.945 36.0273C32.5311 34.5698 32.4845 33.5982 34.8983 31.655C33.6914 29.5498 32.5309 27.5255 31.1383 25.056C29.7457 27.5256 28.5849 29.6308 27.4707 31.655C29.8847 33.8412 29.7919 34.6506 27.0065 36.27C25.6139 37.0797 24.1749 37.8895 22.7823 38.7801C21.8538 39.3469 20.879 39.9137 19.8577 39.1447C18.8364 38.3754 19.3935 37.4441 19.8577 36.5535C21.4361 33.7196 23.0144 30.8452 24.6392 28.0114C25.9854 25.5823 27.2853 23.1532 28.8172 20.8051C29.2814 20.0765 30.2096 19.3072 31.0916 19.1047Z" fill="white"/>
<path d="M31.0454 13.2747C32.5309 13.2343 33.5988 14.125 33.5524 15.38C33.5524 16.6755 32.5775 17.4449 30.9991 17.3639C29.6065 17.3235 28.7242 16.5135 28.7242 15.299C28.7243 14.125 29.6992 13.2748 31.0454 13.2747Z" fill="white"/>
<path fill-rule="evenodd" clip-rule="evenodd" d="M30.5825 7C44.5093 7 55.4185 16.1902 55.3256 28.0117C55.2327 40.6428 43.3953 49.3875 31.0934 48.9828C19.5807 49.4281 7.04661 41.2097 6.95371 27.9307C6.86087 16.5545 17.8163 7.00004 30.5825 7ZM31.3255 10.2791C20.3698 10.1172 11.1314 17.9714 10.76 27.4448C10.3886 36.3919 18.2806 45.5011 30.5825 45.825C41.7239 46.1489 51.148 38.1732 51.5193 28.7807C51.9835 19.2669 43.1632 10.3602 31.3255 10.2791Z" fill="white"/>
<path d="M72.7266 13.3188V11.9106H70.6909C70.4487 11.9106 70.2815 11.9441 70.1892 12.0112C70.097 12.0749 70.0508 12.1805 70.0508 12.328V12.8963C70.0508 13.0572 70.097 13.1679 70.1892 13.2282C70.2815 13.2886 70.4487 13.3188 70.6909 13.3188H72.7266ZM76.8211 12.8963V12.328C76.8211 12.1805 76.775 12.0749 76.6827 12.0112C76.5904 11.9441 76.4232 11.9106 76.181 11.9106H74.1453V13.3188H76.181C76.4232 13.3188 76.5904 13.2886 76.6827 13.2282C76.775 13.1679 76.8211 13.0572 76.8211 12.8963ZM70.0624 10.9902H76.8096C77.294 10.9902 77.6439 11.0724 77.8591 11.2367C78.0783 11.3976 78.1879 11.6591 78.1879 12.0212V13.2081C78.1879 13.5635 78.0783 13.8234 77.8591 13.9877C77.6439 14.1519 77.294 14.2341 76.8096 14.2341H74.1453V16.3061H72.7266V14.2341H70.0624C69.5779 14.2341 69.2262 14.1519 69.007 13.9877C68.7917 13.8234 68.6841 13.5635 68.6841 13.2081V12.0212C68.6841 11.6591 68.7917 11.3976 69.007 11.2367C69.2262 11.0724 69.5779 10.9902 70.0624 10.9902Z" fill="white"/>
<path d="M80.2005 12.2475C80.2005 11.7681 80.3043 11.4395 80.5119 11.2618C80.7234 11.0808 81.1232 10.9902 81.7114 10.9902H86.198C86.7901 10.9902 87.1899 11.0791 87.3975 11.2568C87.6051 11.4345 87.7089 11.7647 87.7089 12.2475V15.0488C87.7089 15.5316 87.6032 15.8619 87.3918 16.0396C87.1841 16.2173 86.7862 16.3061 86.198 16.3061H81.7114C81.1232 16.3061 80.7234 16.219 80.5119 16.0446C80.3043 15.8669 80.2005 15.535 80.2005 15.0488V12.2475ZM81.6191 15.3053H86.2961V11.9408H81.6191V15.3053Z" fill="white"/>
<path d="M90.6962 16.3061V10.9902H92.1148V13.0522H96.5438V10.9902H97.9739V16.3061H96.5438V14.0178H92.1148V16.3061H90.6962Z" fill="white"/>
<path d="M102.149 15.3405H106.203L104.196 12.0212L102.149 15.3405ZM100.113 17.0605L100.119 15.3405H100.742L103.562 10.9902H104.929L107.801 15.3405H108.423V17.0605L107.005 17.0555V16.3061H101.526L101.521 17.0555L100.113 17.0605Z" fill="white"/>
<path d="M74.7508 21.5056H70.9274V24.8701H74.7508V23.7285L76.1695 23.985V24.6136C76.1695 25.0965 76.0637 25.4267 75.8523 25.6044C75.6408 25.7821 75.2429 25.871 74.6585 25.871H71.0197C70.4314 25.871 70.0316 25.7838 69.8202 25.6094C69.6125 25.4317 69.5087 25.0998 69.5087 24.6136V21.8124C69.5087 21.3329 69.6125 21.0043 69.8202 20.8266C70.0316 20.6456 70.4314 20.5551 71.0197 20.5551H74.6585C75.2506 20.5551 75.6504 20.6439 75.858 20.8216C76.0657 20.9993 76.1695 21.3296 76.1695 21.8124V22.3153L74.7508 22.5114V21.5056Z" fill="white"/>
<path d="M78.9664 21.8124C78.9664 21.3329 79.0702 21.0043 79.2778 20.8266C79.4892 20.6456 79.8891 20.5551 80.4773 20.5551H84.9639C85.556 20.5551 85.9558 20.6439 86.1634 20.8216C86.371 20.9993 86.4748 21.3296 86.4748 21.8124V24.6136C86.4748 25.0965 86.3691 25.4267 86.1576 25.6044C85.95 25.7821 85.5521 25.871 84.9639 25.871H80.4773C79.8891 25.871 79.4892 25.7838 79.2778 25.6094C79.0702 25.4317 78.9664 25.0998 78.9664 24.6136V21.8124ZM80.385 24.8701H85.0619V21.5056H80.385V24.8701Z" fill="white"/>
<path d="M90.5232 24.9053H94.5773L92.5704 21.586L90.5232 24.9053ZM88.4875 26.6253L88.4932 24.9053H89.116L91.936 20.5551H93.3028L96.1747 24.9053H96.7975V26.6253L95.3788 26.6203V25.871H89.9003L89.8946 26.6203L88.4875 26.6253Z" fill="white"/>
<path d="M98.8274 25.871V20.5551H105.067V21.4603H100.246V22.6472H103.06V23.5525H100.246V24.8701H105.125V25.871H98.8274Z" fill="white"/>
<path d="M114.859 25.871H113.585V22.9993L113.602 22.6221L113.642 22.1543C113.604 22.1979 113.569 22.2331 113.539 22.26C113.523 22.2734 113.483 22.3069 113.418 22.3605L113.135 22.5869L108.66 25.871H107.691V20.5551H108.966V23.3463L108.954 23.6329L108.908 24.2666C109.004 24.166 109.104 24.0722 109.208 23.985C109.315 23.8945 109.446 23.7956 109.6 23.6883L113.89 20.5551H114.859V25.871ZM113.014 19.1016V20.1577L111.278 21.3748L109.531 20.1577V19.1016L111.278 20.2684L113.014 19.1016Z" fill="white"/>
<path d="M123.123 21.5056H119.3V24.8701H123.123V23.7285L124.542 23.985V24.6136C124.542 25.0965 124.436 25.4267 124.225 25.6044C124.013 25.7821 123.615 25.871 123.031 25.871H119.392C118.804 25.871 118.404 25.7838 118.193 25.6094C117.985 25.4317 117.881 25.0998 117.881 24.6136V21.8124C117.881 21.3329 117.985 21.0043 118.193 20.8266C118.404 20.6456 118.804 20.5551 119.392 20.5551H123.031C123.623 20.5551 124.023 20.6439 124.23 20.8216C124.438 20.9993 124.542 21.3296 124.542 21.8124V22.3153L123.123 22.5114V21.5056Z" fill="white"/>
<path d="M130.303 21.5056V25.871H128.884V21.5056H126.087V20.5551H133.111V21.5056H130.303Z" fill="white"/>
<path d="M141.485 24.8299C141.485 25.1853 141.337 25.4485 141.041 25.6195C140.745 25.7871 140.295 25.871 139.691 25.871H134.847V20.5551H140.072C140.553 20.5551 140.9 20.6372 141.116 20.8015C141.331 20.9624 141.439 21.2239 141.439 21.586V22.2348C141.439 22.4863 141.35 22.6891 141.173 22.8434C140.997 22.9942 140.735 23.0898 140.389 23.13C140.735 23.1703 141.004 23.2792 141.197 23.4569C141.389 23.6346 141.485 23.866 141.485 24.151V24.8299ZM140.13 22.3052V21.8023C140.13 21.6682 140.082 21.571 139.985 21.5106C139.893 21.4503 139.724 21.4201 139.478 21.4201H136.243V22.6874H139.478C139.724 22.6874 139.893 22.6589 139.985 22.602C140.082 22.545 140.13 22.446 140.13 22.3052ZM140.164 24.4376V24.0353C140.164 23.8609 140.116 23.7386 140.02 23.6681C139.928 23.5977 139.747 23.5625 139.478 23.5625H136.243V24.9154H139.478C139.739 24.9154 139.918 24.8802 140.014 24.8098C140.114 24.736 140.164 24.612 140.164 24.4376Z" fill="white"/>
<path d="M151.34 25.871H150.066V22.9993L150.083 22.6221L150.124 22.1543C150.085 22.1979 150.051 22.2331 150.02 22.26C150.004 22.2734 149.964 22.3069 149.899 22.3605L149.616 22.5869L145.141 25.871H144.172V20.5551H145.447V23.3463L145.435 23.6329L145.389 24.2666C145.485 24.166 145.585 24.0722 145.689 23.985C145.797 23.8945 145.927 23.7956 146.081 23.6883L150.372 20.5551H151.34V25.871Z" fill="white"/>
<path d="M160.925 25.871H159.529V23.8643H158.186L155.729 25.871H153.693L156.508 23.8643H155.712C155.231 23.8643 154.881 23.7821 154.662 23.6179C154.443 23.4502 154.333 23.1887 154.333 22.8333V21.586C154.333 21.2239 154.441 20.9624 154.656 20.8015C154.875 20.6372 155.227 20.5551 155.712 20.5551H160.925V25.871ZM159.529 22.954V21.4754H156.34C156.098 21.4754 155.931 21.5089 155.839 21.576C155.746 21.6397 155.7 21.7453 155.7 21.8928V22.5315C155.7 22.6925 155.746 22.8031 155.839 22.8635C155.931 22.9238 156.098 22.954 156.34 22.954H159.529Z" fill="white"/>
<path d="M74.2203 31.0402H71.0312V32.4484H74.2203C74.4625 32.4484 74.6297 32.4182 74.722 32.3579C74.8142 32.2975 74.8604 32.1869 74.8604 32.026V31.4576C74.8604 31.3101 74.8142 31.2045 74.722 31.1408C74.6297 31.0737 74.4625 31.0402 74.2203 31.0402ZM69.6356 35.4358V30.1199H74.8488C75.3333 30.1199 75.6831 30.202 75.8984 30.3663C76.1176 30.5272 76.2271 30.7888 76.2271 31.1509V32.3378C76.2271 32.6932 76.1176 32.953 75.8984 33.1173C75.6831 33.2816 75.3333 33.3637 74.8488 33.3637H71.0312V35.4358H69.6356Z" fill="white"/>
<path d="M79.9756 33.3134H82.6456L81.3308 31.1509L79.9756 33.3134ZM77.2479 35.4358L80.6964 30.1199H82.0632L85.5579 35.4358H83.9662L83.2339 34.274H79.3701L78.6607 35.4358H77.2479Z" fill="white"/>
<path d="M88.6605 35.4358C88.1107 35.4358 87.7397 35.362 87.5475 35.2145C87.3591 35.067 87.2649 34.7937 87.2649 34.3947V33.9622L88.5163 33.7359V34.4802H91.8034C92.0379 34.4802 92.1936 34.45 92.2705 34.3897C92.3513 34.326 92.3916 34.1969 92.3916 34.0024V33.6152C92.3916 33.4274 92.3493 33.3 92.2647 33.233C92.184 33.1626 92.0302 33.1274 91.8034 33.1274H89.7446V32.2623H91.5785C91.8092 32.2623 91.9629 32.2321 92.0398 32.1718C92.1167 32.1081 92.1552 31.9773 92.1552 31.7795V31.513C92.1552 31.3152 92.1148 31.1844 92.0341 31.1207C91.9572 31.057 91.8053 31.0251 91.5785 31.0251H88.5682V31.689L87.3629 31.4929V31.1609C87.3629 30.7653 87.4571 30.4937 87.6455 30.3462C87.8339 30.1953 88.203 30.1199 88.7527 30.1199H92.0514C92.605 30.1199 92.9741 30.1936 93.1586 30.3412C93.347 30.4887 93.4412 30.7619 93.4412 31.1609V31.6437C93.4412 31.9555 93.3547 32.1869 93.1817 32.3378C93.0087 32.4886 92.703 32.5943 92.2647 32.6546C92.753 32.6948 93.1106 32.8021 93.3374 32.9765C93.5642 33.1475 93.6776 33.4006 93.6776 33.7359V34.2941C93.6776 34.7267 93.57 35.025 93.3547 35.1893C93.1394 35.3536 92.7549 35.4358 92.2013 35.4358H88.6605Z" fill="white"/>
<path d="M103.297 34.3947C103.297 34.7501 103.149 35.0133 102.853 35.1843C102.557 35.352 102.107 35.4358 101.503 35.4358H96.6591V30.1199H101.884C102.364 30.1199 102.712 30.202 102.928 30.3663C103.143 30.5272 103.251 30.7888 103.251 31.1509V31.7996C103.251 32.0511 103.162 32.2539 102.985 32.4082C102.808 32.559 102.547 32.6546 102.201 32.6948C102.547 32.7351 102.816 32.844 103.008 33.0217C103.201 33.1994 103.297 33.4308 103.297 33.7158V34.3947ZM101.942 31.87V31.3671C101.942 31.233 101.893 31.1358 101.797 31.0754C101.705 31.0151 101.536 30.9849 101.29 30.9849H98.0547V32.2523H101.29C101.536 32.2523 101.705 32.2238 101.797 32.1668C101.893 32.1098 101.942 32.0109 101.942 31.87ZM101.976 34.0024V33.6001C101.976 33.4258 101.928 33.3034 101.832 33.233C101.74 33.1626 101.559 33.1274 101.29 33.1274H98.0547V34.4802H101.29C101.551 34.4802 101.73 34.445 101.826 34.3746C101.926 34.3008 101.976 34.1768 101.976 34.0024Z" fill="white"/>
<path d="M113.152 35.4358H111.878V32.5641L111.895 32.1869L111.935 31.7192C111.897 31.7628 111.862 31.798 111.832 31.8248C111.816 31.8382 111.776 31.8717 111.711 31.9254L111.428 32.1517L106.953 35.4358H105.984V30.1199H107.259V32.9111L107.247 33.1978L107.201 33.8314C107.297 33.7309 107.397 33.637 107.501 33.5498C107.608 33.4593 107.739 33.3604 107.893 33.2531L112.183 30.1199H113.152V35.4358Z" fill="white"/>
<path d="M119.138 31.0704V35.4358H117.72V31.0704H114.923V30.1199H121.947V31.0704H119.138Z" fill="white"/>
<path d="M130.799 35.4358H129.524V32.5641L129.542 32.1869L129.582 31.7192C129.544 31.7628 129.509 31.798 129.478 31.8248C129.463 31.8382 129.423 31.8717 129.357 31.9254L129.075 32.1517L124.599 35.4358H123.631V30.1199H124.905V32.9111L124.894 33.1978L124.847 33.8314C124.944 33.7309 125.044 33.637 125.147 33.5498C125.255 33.4593 125.386 33.3604 125.539 33.2531L129.83 30.1199H130.799V35.4358Z" fill="white"/>
<path d="M138.18 34.435H142.857V31.0704H138.18V34.435ZM135.366 33.1424V35.4358H133.948V30.1199H135.366V32.1768H136.762V31.3772C136.762 30.8977 136.866 30.5691 137.073 30.3914C137.285 30.2104 137.684 30.1199 138.273 30.1199H142.759C143.351 30.1199 143.751 30.2087 143.959 30.3864C144.166 30.5641 144.27 30.8944 144.27 31.3772V34.1785C144.27 34.6613 144.165 34.9915 143.953 35.1692C143.745 35.3469 143.348 35.4358 142.759 35.4358H138.273C137.684 35.4358 137.285 35.3486 137.073 35.1743C136.866 34.9966 136.762 34.6646 136.762 34.1785V33.1424H135.366Z" fill="white"/>
<path d="M69.6356 45.0006V39.6847H71.0658V41.9026L74.4452 39.6847H76.4982L72.4614 42.1893L76.9941 45.0006H74.7162L71.0658 42.662V45.0006H69.6356Z" fill="white"/>
<path d="M78.8856 40.942C78.8856 40.4625 78.9895 40.134 79.1971 39.9563C79.4085 39.7752 79.8083 39.6847 80.3966 39.6847H84.8832C85.4752 39.6847 85.8751 39.7735 86.0827 39.9512C86.2903 40.1289 86.3941 40.4592 86.3941 40.942V43.7433C86.3941 44.2261 86.2884 44.5563 86.0769 44.734C85.8693 44.9117 85.4714 45.0006 84.8832 45.0006H80.3966C79.8083 45.0006 79.4085 44.9134 79.1971 44.7391C78.9895 44.5614 78.8856 44.2294 78.8856 43.7433V40.942ZM80.3043 43.9998H84.9812V40.6352H80.3043V43.9998Z" fill="white"/>
<path d="M94.4965 40.6352H90.6731V43.9998H94.4965V42.8581L95.9152 43.1146V43.7433C95.9152 44.2261 95.8094 44.5563 95.598 44.734C95.3865 44.9117 94.9886 45.0006 94.4043 45.0006H90.7654C90.1771 45.0006 89.7773 44.9134 89.5659 44.7391C89.3583 44.5614 89.2545 44.2294 89.2545 43.7433V40.942C89.2545 40.4625 89.3583 40.134 89.5659 39.9563C89.7773 39.7752 90.1771 39.6847 90.7654 39.6847H94.4043C94.9963 39.6847 95.3962 39.7735 95.6038 39.9512C95.8114 40.1289 95.9152 40.4592 95.9152 40.942V41.4449L94.4965 41.6411V40.6352Z" fill="white"/>
<path d="M98.8274 45.0006V39.6847H99.975L102.847 42.8984L105.655 39.6847H106.791V45.0006H105.477V41.7165L105.488 41.4751L105.529 41.1482L105.327 41.4902L105.171 41.7064L102.882 44.3619H102.599L100.304 41.6964L100.085 41.4147L99.9404 41.1532L99.9635 41.455L99.975 41.7165V45.0006H98.8274Z" fill="white"/>
<path d="M109.646 40.942C109.646 40.4625 109.75 40.134 109.957 39.9563C110.169 39.7752 110.569 39.6847 111.157 39.6847H115.644C116.236 39.6847 116.635 39.7735 116.843 39.9512C117.051 40.1289 117.154 40.4592 117.154 40.942V43.7433C117.154 44.2261 117.049 44.5563 116.837 44.734C116.63 44.9117 116.232 45.0006 115.644 45.0006H111.157C110.569 45.0006 110.169 44.9134 109.957 44.7391C109.75 44.5614 109.646 44.2294 109.646 43.7433V40.942ZM111.065 43.9998H115.742V40.6352H111.065V43.9998Z" fill="white"/>
<path d="M120.142 45.0006V39.6847H121.56V41.7467H125.989V39.6847H127.419V45.0006H125.989V42.7123H121.56V45.0006H120.142Z" fill="white"/>
<path d="M132.096 42.8783H134.766L133.452 40.7157L132.096 42.8783ZM129.369 45.0006L132.817 39.6847H134.184L137.679 45.0006H136.087L135.355 43.8388H131.491L130.782 45.0006H129.369Z" fill="white"/>
<path d="M146.283 43.9595C146.283 44.3149 146.135 44.5781 145.839 44.7491C145.543 44.9168 145.093 45.0006 144.489 45.0006H139.645V39.6847H144.87C145.351 39.6847 145.699 39.7668 145.914 39.9311C146.129 40.0921 146.237 40.3536 146.237 40.7157V41.3645C146.237 41.6159 146.148 41.8188 145.971 41.973C145.795 42.1239 145.533 42.2194 145.187 42.2597C145.533 42.2999 145.802 42.4089 145.995 42.5866C146.187 42.7643 146.283 42.9956 146.283 43.2806V43.9595ZM144.928 41.4349V40.9319C144.928 40.7978 144.88 40.7006 144.783 40.6402C144.691 40.5799 144.522 40.5497 144.276 40.5497H141.041V41.8171H144.276C144.522 41.8171 144.691 41.7886 144.783 41.7316C144.88 41.6746 144.928 41.5757 144.928 41.4349ZM144.962 43.5673V43.1649C144.962 42.9906 144.914 42.8682 144.818 42.7978C144.726 42.7274 144.545 42.6922 144.276 42.6922H141.041V44.045H144.276C144.537 44.045 144.716 44.0098 144.812 43.9394C144.912 43.8657 144.962 43.7416 144.962 43.5673Z" fill="white"/>
<path d="M151.859 40.6352V45.0006H150.441V40.6352H147.644V39.6847H154.668V40.6352H151.859Z" fill="white"/>
<path d="M163.52 45.0006H162.246V42.1289L162.263 41.7517L162.303 41.284C162.265 41.3276 162.23 41.3628 162.199 41.3896C162.184 41.403 162.144 41.4365 162.078 41.4902L161.796 41.7165L157.321 45.0006H156.352V39.6847H157.626V42.4759L157.615 42.7626L157.569 43.3963C157.665 43.2957 157.765 43.2018 157.868 43.1146C157.976 43.0241 158.107 42.9252 158.261 42.8179L162.551 39.6847H163.52V45.0006Z" fill="white"/>
<path d="M166.669 45.0006V39.6847H168.099V41.9026L171.478 39.6847H173.531L169.494 42.1893L174.027 45.0006H171.749L168.099 42.662V45.0006H166.669Z" fill="white"/>
<path d="M183.162 45.0006H181.887V42.1289L181.905 41.7517L181.945 41.284C181.907 41.3276 181.872 41.3628 181.841 41.3896C181.826 41.403 181.786 41.4365 181.72 41.4902L181.438 41.7165L176.963 45.0006H175.994V39.6847H177.268V42.4759L177.257 42.7626L177.211 43.3963C177.307 43.2957 177.407 43.2018 177.51 43.1146C177.618 43.0241 177.749 42.9252 177.903 42.8179L182.193 39.6847H183.162V45.0006Z" fill="white"/>
<defs>
<filter id="filter0_f_55_190" x="0.692598" y="0.739473" width="188.73" height="54.5211" filterUnits="userSpaceOnUse" color-interpolation-filters="sRGB">
<feFlood flood-opacity="0" result="BackgroundImageFix"/>
<feBlend mode="normal" in="SourceGraphic" in2="BackgroundImageFix" result="shape"/>
<feGaussianBlur stdDeviation="3.13026" result="effect1_foregroundBlur_55_190"/>
</filter>
</defs>
</svg>
