<svg width="479" height="69" viewBox="0 0 479 69" fill="none" xmlns="http://www.w3.org/2000/svg">
<path d="M70.5674 0.859375C70.5674 0.859375 60.8552 11.959 49.4473 24.0606C48.8306 23.444 48.291 22.8274 47.6744 22.2878C42.5871 17.0463 37.1914 12.5756 32.027 9.02992C36.1894 12.3444 40.5059 16.3526 44.5912 20.9774C45.9016 22.442 47.1348 23.8294 48.291 25.2939C40.8913 33.0791 33.0291 41.1726 26.7085 46.7994C25.0127 45.1807 23.394 43.4079 21.6982 41.635C6.89874 25.1398 -0.655166 7.41123 4.20092 0.859375C3.89259 1.09062 3.58427 1.32186 3.35303 1.63018C-3.19883 8.18204 6.05085 28.0688 24.0106 46.0286C24.6273 46.6453 25.1669 47.1848 25.7835 47.7244C24.2419 49.1119 22.7774 50.2681 21.467 51.2701C9.4424 60.2115 3.12179 53.5055 0.578125 49.1889C0.809367 52.2722 1.50309 55.4325 2.73638 58.5157C3.73843 60.9052 4.97172 63.0635 6.35917 64.9905C7.66955 66.7633 9.51948 68.0737 11.6777 68.5362C14.2985 69.1528 17.4588 68.6903 21.1587 66.6092C25.321 64.3738 29.8688 60.2886 34.4165 55.3554C49.0619 66.9175 63.0905 71.9277 68.332 66.6862C74.1131 60.9052 67.7154 44.9495 53.995 29.0709C63.6301 14.1943 70.5674 0.859375 70.5674 0.859375ZM61.4718 62.5239C57.0012 66.6092 46.5953 62.9864 35.4186 54.2763C41.4309 47.4932 47.4432 39.0914 52.7617 30.9979C62.6281 44.8724 66.5592 57.8991 61.4718 62.5239Z" fill="white"/>
<path d="M98.8566 27.993C99.7045 28.7639 100.629 29.3034 101.709 29.7659C102.788 30.1513 103.944 30.3825 105.177 30.4596V32.2325H106.95V30.4596C108.106 30.4596 109.262 30.2284 110.342 29.7659C111.421 29.3805 112.423 28.7639 113.271 28.0701C114.119 27.3764 114.812 26.4514 115.275 25.4494C115.737 24.4473 115.968 23.2911 115.968 21.9808C115.968 20.7475 115.737 19.5913 115.275 18.5892C114.812 17.5872 114.119 16.6622 113.348 15.9685C112.5 15.1977 111.575 14.6581 110.496 14.1956C109.417 13.8102 108.26 13.579 107.027 13.5019V12.0374H105.254V13.5019C104.021 13.5019 102.942 13.7331 101.863 14.1185C100.784 14.5039 99.8586 15.1206 99.0107 15.8143C98.1629 16.5851 97.5462 17.433 97.0066 18.435C96.4671 19.4371 96.2358 20.5933 96.2358 21.9037C96.2358 23.137 96.4671 24.2932 96.9296 25.2952C97.3921 26.2973 98.0087 27.2222 98.8566 27.993ZM106.95 14.9664C107.875 14.9664 108.8 15.1977 109.648 15.506C110.496 15.8143 111.267 16.2768 111.96 16.8934C112.654 17.5101 113.194 18.2038 113.579 19.0517C113.964 19.8996 114.119 20.8245 114.119 21.9037C114.119 23.2911 113.81 24.4473 113.117 25.4494C112.5 26.4514 111.575 27.2993 110.496 27.8389C109.417 28.4555 108.183 28.7639 106.873 28.7639V14.9664H106.95ZM99.0878 18.2809C99.7045 17.2788 100.629 16.431 101.709 15.8914C102.788 15.3518 104.021 15.0435 105.331 14.9664V28.7639C104.406 28.7639 103.481 28.5326 102.634 28.2243C101.786 27.916 101.015 27.4535 100.321 26.8368C99.6274 26.2202 99.0878 25.5265 98.7024 24.6786C98.317 23.8307 98.0858 22.9057 98.0858 21.8266C98.0858 20.5162 98.3941 19.2829 99.0878 18.2809Z" fill="white"/>
<path d="M133.852 29.3822C134.7 28.4572 135.317 27.4552 135.779 26.2219C136.242 25.0657 136.473 23.8324 136.473 22.522C136.473 21.2887 136.242 20.1325 135.856 18.9763C135.394 17.8201 134.777 16.741 134.006 15.816C133.235 14.891 132.233 14.1202 131.154 13.5807C130.075 13.0411 128.842 12.7328 127.454 12.7328C126.144 12.7328 124.988 12.964 123.832 13.5036C122.752 14.0432 121.75 14.7369 120.902 15.6619C120.055 16.5868 119.438 17.5889 118.975 18.8222C118.513 19.9784 118.282 21.2117 118.282 22.522C118.282 23.7553 118.513 24.9886 118.898 26.1448C119.361 27.301 119.978 28.3802 120.748 29.3051C121.519 30.2301 122.521 31.0009 123.6 31.5405C124.679 32.08 125.913 32.3884 127.3 32.3884C128.611 32.3884 129.767 32.1571 130.923 31.6175C132.079 31.0009 133.081 30.3072 133.852 29.3822ZM130.383 29.9218C129.536 30.3843 128.533 30.6155 127.377 30.6155C126.298 30.6155 125.373 30.3843 124.448 29.9218C123.6 29.4593 122.829 28.8426 122.136 28.1489C121.519 27.3781 120.98 26.5302 120.671 25.5282C120.363 24.5261 120.132 23.5241 120.132 22.522C120.132 21.52 120.286 20.5179 120.671 19.593C120.98 18.668 121.519 17.743 122.136 16.9722C122.752 16.2014 123.523 15.5848 124.371 15.1223C125.219 14.6598 126.221 14.4286 127.3 14.4286C128.379 14.4286 129.304 14.6598 130.229 15.0452C131.077 15.5077 131.848 16.0473 132.542 16.8181C133.158 17.5889 133.698 18.4368 134.006 19.4388C134.315 20.4409 134.546 21.4429 134.546 22.4449C134.546 23.447 134.392 24.449 134.083 25.374C133.775 26.299 133.312 27.2239 132.619 27.9948C132.002 28.8426 131.231 29.4593 130.383 29.9218Z" fill="white"/>
<path d="M153.431 21.4378H142.023V12.8047H140.096V32.152H142.023V23.1335H153.431V32.152H155.358V12.8047H153.431V21.4378Z" fill="white"/>
<path d="M160.521 32.152H175.397V35.8518H177.093V30.4562H174.781V12.8047H163.219L163.065 18.1233C162.987 20.4357 162.833 22.4398 162.679 23.9814C162.525 25.6001 162.294 26.8334 161.985 27.7584C161.677 28.6833 161.369 29.3771 160.983 29.7625C160.598 30.1479 160.136 30.3791 159.596 30.3791H158.748V35.7748H160.444V32.152H160.521ZM163.604 28.4521C163.912 27.5271 164.221 26.2168 164.375 24.521C164.529 22.9023 164.683 20.8211 164.76 18.3545L164.837 14.5005H172.777V30.4562H162.294C162.833 30.0708 163.296 29.3771 163.604 28.4521Z" fill="white"/>
<path d="M199.834 29.071C199.14 29.6106 198.446 29.996 197.676 30.2272C196.905 30.4585 196.134 30.6126 195.44 30.6126C194.438 30.6126 193.436 30.3814 192.588 29.9189C191.74 29.4564 190.97 28.8398 190.276 28.1461C189.659 27.3753 189.12 26.5274 188.734 25.5253C188.349 24.5233 188.195 23.5212 188.195 22.4421C188.195 21.44 188.349 20.5151 188.657 19.513C188.965 18.5881 189.428 17.6631 190.045 16.8923C190.661 16.1215 191.432 15.5048 192.28 15.0423C193.205 14.5799 194.207 14.3486 195.363 14.3486C196.057 14.3486 196.751 14.4257 197.521 14.6569C198.215 14.8882 198.909 15.1965 199.525 15.7361C200.142 16.1986 200.682 16.8923 201.144 17.7402L202.609 16.8152C201.992 15.5819 201.144 14.5799 199.911 13.8091C198.678 13.0382 197.213 12.6528 195.517 12.6528C194.053 12.6528 192.742 12.9612 191.586 13.5007C190.43 14.0403 189.505 14.8111 188.657 15.7361C187.886 16.661 187.27 17.7402 186.884 18.8193C186.499 19.9755 186.268 21.1317 186.268 22.2879C186.268 23.5212 186.499 24.6774 186.884 25.9107C187.347 27.0669 187.963 28.1461 188.734 29.1481C189.505 30.0731 190.507 30.8439 191.586 31.4605C192.665 32.0001 193.899 32.3084 195.209 32.3084C196.211 32.3084 197.213 32.1542 198.215 31.7688C199.217 31.4605 200.142 30.921 200.99 30.2272C201.838 29.5335 202.455 28.7627 202.84 27.7607L201.221 26.9128C201.067 27.8377 200.528 28.5315 199.834 29.071Z" fill="white"/>
<path d="M213.862 32.3113C215.173 32.3113 216.329 32.08 217.485 31.5405C218.564 31.0009 219.566 30.3072 220.414 29.3822C221.262 28.4572 221.879 27.4552 222.341 26.2219C222.804 25.0657 223.035 23.8324 223.035 22.522C223.035 21.2887 222.804 20.1325 222.418 18.9763C221.956 17.8201 221.339 16.741 220.568 15.816C219.797 14.891 218.795 14.1202 217.716 13.5807C216.637 13.0411 215.404 12.7328 214.016 12.7328C212.706 12.7328 211.55 12.964 210.394 13.5036C209.314 14.0432 208.312 14.7369 207.464 15.6619C206.617 16.5868 206 17.5889 205.537 18.8222C205.075 19.9784 204.844 21.2117 204.844 22.522C204.844 23.7553 205.075 24.9886 205.46 26.1448C205.923 27.301 206.54 28.3802 207.31 29.3051C208.081 30.2301 209.083 31.0009 210.162 31.5405C211.241 32.08 212.475 32.3113 213.862 32.3113ZM208.698 28.1489C208.081 27.3781 207.542 26.5302 207.233 25.5282C206.925 24.5261 206.694 23.5241 206.694 22.522C206.694 21.52 206.848 20.5179 207.233 19.593C207.542 18.668 208.081 17.743 208.698 16.9722C209.314 16.2014 210.085 15.5848 210.933 15.1223C211.781 14.6598 212.783 14.4286 213.862 14.4286C214.941 14.4286 215.866 14.6598 216.791 15.0452C217.639 15.5077 218.41 16.0473 219.104 16.8181C219.72 17.5889 220.26 18.4368 220.568 19.4388C220.877 20.4409 221.108 21.4429 221.108 22.445C221.108 23.447 220.954 24.449 220.645 25.374C220.337 26.299 219.874 27.224 219.181 27.9948C218.564 28.7656 217.793 29.3822 216.945 29.8447C216.098 30.3072 215.095 30.5384 213.939 30.5384C212.86 30.5384 211.935 30.3072 211.01 29.8447C210.085 29.5364 209.314 28.9197 208.698 28.1489Z" fill="white"/>
<path d="M226.886 32.152H241.763V35.8518H243.458V30.4562H241.146V12.8047H229.584L229.43 18.1233C229.353 20.4357 229.199 22.4398 229.044 23.9814C228.89 25.6001 228.659 26.8334 228.351 27.7584C228.042 28.6833 227.734 29.3771 227.349 29.7625C226.963 30.1479 226.501 30.3791 225.961 30.3791H225.113V35.7748H226.809V32.152H226.886ZM229.969 28.4521C230.278 27.5271 230.586 26.2168 230.74 24.521C230.894 22.8252 231.049 20.8211 231.126 18.3545L231.203 14.5005H239.142V30.4562H228.736C229.199 30.0708 229.661 29.3771 229.969 28.4521Z" fill="white"/>
<path d="M259.954 30.5333H248.855V23.1335H258.336V21.5148H248.855V14.5005H259.723V12.8047H247.005V32.152H259.954V30.5333Z" fill="white"/>
<path d="M265.58 29.6083V12.8047H263.653V32.152H265.58L277.451 15.7338V32.152H279.378V12.8047H277.605L265.58 29.6083Z" fill="white"/>
<path d="M269.28 10.8053C269.896 11.0365 270.667 11.1907 271.515 11.1907C272.44 11.1907 273.211 11.0365 273.75 10.8053C274.367 10.574 274.752 10.1886 275.138 9.72615C275.446 9.26367 275.6 8.7241 275.6 8.18454H274.136C274.136 8.7241 273.904 9.18659 273.519 9.49491C273.134 9.88031 272.44 10.0345 271.515 10.0345C270.513 10.0345 269.819 9.88031 269.511 9.49491C269.125 9.10951 268.971 8.7241 268.894 8.18454H267.43C267.43 8.7241 267.584 9.26367 267.892 9.72615C268.2 10.1886 268.663 10.574 269.28 10.8053Z" fill="white"/>
<path d="M297.877 30.3043C298.724 29.6106 299.341 28.8398 299.726 27.8377L298.108 26.9898C297.722 27.8377 297.183 28.5315 296.489 29.071C295.795 29.6106 295.102 29.996 294.331 30.2272C293.56 30.4585 292.789 30.6126 292.095 30.6126C291.093 30.6126 290.091 30.3814 289.243 29.9189C288.396 29.4564 287.625 28.8398 286.931 28.1461C286.314 27.3753 285.775 26.5274 285.389 25.5253C285.004 24.5233 284.85 23.5212 284.85 22.4421C284.85 21.44 285.004 20.5151 285.312 19.513C285.621 18.5881 286.083 17.6631 286.7 16.8923C287.316 16.1215 288.087 15.5048 288.935 15.0423C289.86 14.5799 290.862 14.3486 292.018 14.3486C292.712 14.3486 293.406 14.4257 294.177 14.6569C294.87 14.8882 295.564 15.1965 296.181 15.7361C296.797 16.1986 297.337 16.8923 297.799 17.7402L299.264 16.8152C298.647 15.5819 297.799 14.5799 296.566 13.8091C295.333 13.0382 293.868 12.6528 292.173 12.6528C290.708 12.6528 289.398 12.9612 288.241 13.5007C287.085 14.0403 286.16 14.8111 285.312 15.7361C284.542 16.661 283.925 17.7402 283.54 18.8193C283.154 19.9755 282.923 21.1317 282.923 22.2879C282.923 23.5212 283.154 24.6774 283.54 25.9107C284.002 27.0669 284.619 28.1461 285.389 29.1481C286.16 30.0731 287.162 30.8439 288.241 31.4605C289.321 32.0001 290.554 32.3084 291.864 32.3084C292.866 32.3084 293.868 32.1542 294.87 31.7688C296.104 31.4605 297.029 30.921 297.877 30.3043Z" fill="white"/>
<path d="M309.824 32.152V14.5005H316.684V12.8047H300.96V14.5005H307.897V32.152H309.824Z" fill="white"/>
<path d="M334.185 27.2188C334.185 26.0626 333.877 24.9835 333.183 24.1356C332.567 23.2106 331.642 22.671 330.563 22.2856C331.411 21.9002 332.104 21.2836 332.644 20.4357C333.106 19.5878 333.415 18.7399 333.415 17.7379C333.415 16.89 333.26 16.1192 332.875 15.3484C332.49 14.5776 332.027 13.9609 331.333 13.4984C330.64 13.036 329.869 12.8047 328.944 12.8047H319.617V32.152H328.79C329.792 32.152 330.64 31.9207 331.488 31.5353C332.335 31.0728 332.952 30.5333 333.492 29.7625C333.877 28.9917 334.185 28.1438 334.185 27.2188ZM321.544 14.5005H328.327C328.944 14.5005 329.484 14.6547 329.946 14.963C330.408 15.2713 330.794 15.7338 331.102 16.2733C331.411 16.8129 331.488 17.4296 331.488 18.0462C331.488 18.6628 331.333 19.2795 331.025 19.8191C330.717 20.3586 330.331 20.8211 329.869 21.1294C329.406 21.4377 328.79 21.669 328.173 21.669H321.544V14.5005ZM331.796 28.6833C331.488 29.2229 331.025 29.6854 330.563 30.0708C330.023 30.3791 329.406 30.6103 328.79 30.6103H321.544V23.2106H328.944C329.561 23.2106 330.177 23.3648 330.64 23.7502C331.102 24.0585 331.565 24.521 331.796 25.1376C332.104 25.6772 332.258 26.2938 332.258 26.9876C332.258 27.5271 332.104 28.0667 331.796 28.6833Z" fill="white"/>
<path d="M351.604 15.7338V32.152H353.531V12.8047H351.758L339.734 29.6083V12.8047H337.884V32.152H339.811L351.604 15.7338Z" fill="white"/>
<path d="M365.016 12.8047C363.706 12.8047 362.55 13.036 361.625 13.5755C360.7 14.038 359.929 14.7317 359.466 15.5796C358.927 16.4275 358.696 17.3525 358.696 18.4316C358.696 19.8191 359.081 20.9753 359.852 21.9773C360.623 22.9794 361.702 23.6731 363.089 23.9814L357.925 32.152H360.083L365.016 24.2127C365.093 24.2127 365.247 24.2127 365.325 24.2127C365.479 24.2127 365.556 24.2127 365.633 24.2127H369.101V32.152H370.951V12.8047H365.016ZM369.101 22.594H365.093C364.091 22.594 363.32 22.4398 362.627 22.0544C361.933 21.669 361.471 21.2065 361.085 20.5899C360.777 19.9732 360.546 19.2795 360.546 18.4316C360.546 17.6608 360.7 16.9671 361.085 16.3504C361.471 15.7338 362.01 15.3484 362.704 14.963C363.398 14.6547 364.245 14.5005 365.093 14.5005H369.024V22.594H369.101Z" fill="white"/>
<path d="M109.417 45.9511C109.108 45.2574 108.723 44.5637 108.26 44.0241C107.721 43.4074 107.181 42.945 106.488 42.6366C105.794 42.3283 105.023 42.0971 104.175 42.0971H96.2358V61.2902H98.1629V54.1987H104.406C105.486 54.1987 106.488 53.8904 107.335 53.3509C108.183 52.8113 108.8 52.0405 109.262 51.1155C109.725 50.1905 109.956 49.1885 109.956 48.1864C109.879 47.4156 109.725 46.6448 109.417 45.9511ZM107.49 50.2676C107.181 50.9613 106.719 51.5009 106.179 51.8863C105.64 52.2717 104.946 52.503 104.175 52.503H98.0087V43.7929H104.021C104.715 43.7929 105.331 44.0241 105.948 44.4095C106.565 44.7949 107.027 45.3345 107.335 46.0282C107.721 46.7219 107.875 47.4156 107.875 48.1864C107.952 48.8802 107.798 49.651 107.49 50.2676Z" fill="white"/>
<path d="M117.663 42.0971L109.647 61.2902H111.651L114.041 55.2779H122.828L125.217 61.2902H127.221L119.282 42.0971H117.663ZM114.657 53.8133L118.434 44.3324L122.211 53.8133H114.657Z" fill="white"/>
<path d="M137.394 51.2691C138.319 50.8837 139.013 50.2671 139.475 49.4962C139.938 48.7254 140.169 47.8776 140.169 46.8755C140.169 45.8735 139.938 45.0256 139.475 44.2548C139.013 43.484 138.319 42.9444 137.548 42.4819C136.7 42.0965 135.775 41.8653 134.696 41.8653C133.386 41.8653 132.307 42.1736 131.382 42.7132C130.457 43.2527 129.686 44.0235 129.146 45.0256L130.534 45.9505C130.919 45.1797 131.536 44.6402 132.23 44.2548C132.923 43.8694 133.771 43.6381 134.696 43.6381C135.467 43.6381 136.084 43.7923 136.7 44.1006C137.24 44.4089 137.702 44.7943 138.011 45.3339C138.319 45.8735 138.473 46.4901 138.473 47.1067C138.473 47.7234 138.319 48.34 138.011 48.8025C137.702 49.3421 137.317 49.7275 136.855 50.0358C136.315 50.3441 135.775 50.4983 135.082 50.4983H133.155V52.0399H135.005C135.853 52.0399 136.623 52.1941 137.24 52.5024C137.857 52.8107 138.319 53.2732 138.627 53.8128C138.936 54.3523 139.09 55.0461 139.09 55.8169C139.09 56.9731 138.704 57.898 137.857 58.5918C137.086 59.2855 136.007 59.6709 134.619 59.6709C133.617 59.6709 132.692 59.4397 131.921 59.0542C131.151 58.5918 130.534 57.9751 130.071 57.2043L128.607 58.1293C129.224 59.1313 129.994 59.9021 131.074 60.5188C132.153 61.0583 133.309 61.3667 134.619 61.3667C135.853 61.3667 136.932 61.1354 137.934 60.75C138.859 60.2875 139.629 59.748 140.169 58.9001C140.709 58.1293 141.017 57.1272 141.017 56.0481C141.017 54.8919 140.709 53.8898 140.092 52.9649C139.398 52.1941 138.55 51.5774 137.394 51.2691Z" fill="white"/>
<path d="M155.431 51.4238C156.279 51.0384 156.973 50.4218 157.435 49.5739C157.898 48.726 158.129 47.8781 158.129 46.9532C158.129 46.1053 157.975 45.3345 157.59 44.6407C157.204 43.8699 156.742 43.2533 156.048 42.7908C155.354 42.3283 154.583 42.0971 153.736 42.0971H144.486V61.2902H153.504C154.506 61.2902 155.354 61.0589 156.202 60.6735C157.05 60.2881 157.667 59.6715 158.129 58.9007C158.592 58.1299 158.823 57.282 158.823 56.357C158.823 55.2008 158.515 54.1217 157.898 53.2738C157.435 52.4259 156.587 51.8092 155.431 51.4238ZM146.49 43.7929H153.273C153.89 43.7929 154.429 43.947 154.892 44.2553C155.354 44.5637 155.74 45.0261 155.971 45.5657C156.279 46.1053 156.356 46.7219 156.356 47.3386C156.356 47.9552 156.202 48.4948 155.894 49.0343C155.585 49.5739 155.2 50.0364 154.738 50.3447C154.275 50.653 153.658 50.8072 153.042 50.8072H146.413V43.7929H146.49ZM156.665 57.8215C156.356 58.3611 155.894 58.8236 155.431 59.1319C154.892 59.4402 154.352 59.6715 153.658 59.6715H146.49V52.4259H153.813C154.429 52.4259 154.969 52.58 155.508 52.9654C155.971 53.2738 156.433 53.7363 156.665 54.2758C156.973 54.8154 157.127 55.432 157.127 56.0487C157.127 56.6653 156.973 57.282 156.665 57.8215Z" fill="white"/>
<path d="M164.527 58.6694V42.0971H162.677V61.2902H164.604L176.32 45.0261V61.2902H178.247V42.0971H176.474L164.527 58.6694Z" fill="white"/>
<path d="M181.178 43.7929H188.038V61.2902H189.888V43.7929H196.748V42.0971H181.178V43.7929Z" fill="white"/>
<path d="M201.606 58.6694V42.0971H199.756V61.2902H201.606L213.399 45.0261V61.2902H215.249V42.0971H213.476L201.606 58.6694Z" fill="white"/>
<path d="M238.912 43.2584C237.602 42.4105 236.06 42.0251 234.287 42.0251C232.746 42.0251 231.358 42.4105 230.125 43.1043C228.892 43.798 227.89 44.8771 227.119 46.1875C226.348 47.4979 225.886 49.0395 225.809 50.8894H222.109V42.1022H220.182V61.2953H222.109V52.5081H225.809C225.886 54.281 226.348 55.8226 227.042 57.21C227.813 58.5204 228.815 59.5995 230.048 60.3703C231.281 61.1411 232.746 61.5265 234.364 61.5265C236.06 61.5265 237.525 61.1411 238.835 60.3703C240.146 59.5995 241.225 58.5204 241.995 57.0559C242.766 55.5913 243.152 53.8955 243.152 51.8144C243.152 49.8874 242.766 48.1916 242.073 46.727C241.302 45.1854 240.223 44.1063 238.912 43.2584ZM240.377 55.8226C239.837 57.0559 238.989 57.9808 237.987 58.6745C236.985 59.3683 235.752 59.6766 234.364 59.6766C233.054 59.6766 231.898 59.3683 230.896 58.6745C229.894 57.9808 229.123 57.0559 228.506 55.8996C227.967 54.6664 227.658 53.2789 227.658 51.6602C227.658 50.1186 227.967 48.7311 228.506 47.4979C229.046 46.2646 229.817 45.3396 230.819 44.6459C231.821 43.9521 232.977 43.6438 234.364 43.6438C235.675 43.6438 236.908 43.9521 237.91 44.6459C238.912 45.2625 239.76 46.1875 240.377 47.4208C240.993 48.6541 241.302 50.0415 241.302 51.6602C241.225 53.2789 240.916 54.6664 240.377 55.8226Z" fill="white"/>
<path d="M267.126 42.0971H264.967L258.339 50.653H255.41V42.0971H253.56V61.2902H255.41V52.3488H258.416L265.276 61.2902H267.588L259.88 51.4238L267.126 42.0971Z" fill="white"/>
<path d="M283.928 45.0284C283.157 44.1035 282.232 43.3327 281.076 42.7931C279.997 42.2535 278.763 41.9452 277.376 41.9452C276.065 41.9452 274.909 42.1764 273.83 42.716C272.751 43.2556 271.749 43.9493 270.978 44.8743C270.13 45.7992 269.514 46.8013 269.051 47.9575C268.589 49.1137 268.357 50.347 268.357 51.6574C268.357 52.8907 268.589 54.0469 268.974 55.2031C269.437 56.3593 270.053 57.4384 270.824 58.3634C271.595 59.2884 272.597 60.0592 273.676 60.5987C274.755 61.1383 275.988 61.4466 277.376 61.4466C278.686 61.4466 279.842 61.2154 280.922 60.6758C282.001 60.1362 283.003 59.4425 283.774 58.5175C284.621 57.5926 285.238 56.5905 285.701 55.4343C286.163 54.2781 286.394 53.0448 286.394 51.7344C286.394 50.5012 286.163 49.3449 285.778 48.1887C285.315 47.0325 284.699 46.0305 283.928 45.0284ZM284.005 54.6635C283.696 55.5885 283.234 56.5134 282.617 57.2072C282.001 57.978 281.23 58.5946 280.382 59.0571C279.534 59.5196 278.532 59.7508 277.453 59.7508C276.374 59.7508 275.449 59.5196 274.601 59.0571C273.753 58.5946 272.982 58.0551 272.366 57.2843C271.749 56.5134 271.209 55.6656 270.901 54.7406C270.593 53.7385 270.362 52.7365 270.362 51.7344C270.362 50.7324 270.516 49.8074 270.824 48.8054C271.132 47.8804 271.672 46.9554 272.289 46.2617C272.905 45.4909 273.676 44.8743 274.524 44.4118C275.372 43.9493 276.374 43.7181 277.453 43.7181C278.532 43.7181 279.457 43.9493 280.305 44.3347C281.153 44.7972 281.924 45.3368 282.54 46.1076C283.157 46.8784 283.696 47.7263 284.005 48.6512C284.313 49.5762 284.544 50.5782 284.544 51.6574C284.467 52.6594 284.313 53.6615 284.005 54.6635Z" fill="white"/>
<path d="M302.12 58.2121C301.426 58.7516 300.733 59.137 299.962 59.3683C299.191 59.5995 298.497 59.7537 297.726 59.7537C296.724 59.7537 295.722 59.5224 294.874 59.06C294.026 58.5975 293.256 58.0579 292.562 57.2871C291.945 56.5163 291.406 55.6684 291.02 54.7434C290.635 53.7414 290.481 52.7393 290.481 51.6602C290.481 50.6582 290.635 49.7332 290.943 48.8082C291.252 47.8833 291.714 47.0354 292.331 46.2646C292.947 45.4938 293.641 44.8771 294.566 44.4146C295.414 43.9521 296.493 43.7209 297.649 43.7209C298.343 43.7209 299.037 43.798 299.808 44.0292C300.501 44.2605 301.195 44.5688 301.812 45.1084C302.428 45.5708 302.968 46.2646 303.353 47.1125L304.818 46.1875C304.278 44.9542 303.353 43.9521 302.12 43.1813C300.887 42.4105 299.422 42.0251 297.726 42.0251C296.262 42.0251 295.029 42.3335 293.872 42.873C292.716 43.4126 291.791 44.1834 291.02 45.1084C290.25 46.0333 289.633 47.0354 289.247 48.1916C288.862 49.3478 288.631 50.504 288.631 51.6602C288.631 52.8935 288.862 54.0497 289.247 55.2059C289.71 56.3621 290.327 57.4413 291.097 58.3662C291.868 59.2912 292.87 60.062 293.949 60.6016C295.029 61.1411 296.262 61.4495 297.572 61.4495C298.574 61.4495 299.576 61.2953 300.578 60.9099C301.58 60.6016 302.505 60.062 303.353 59.3683C304.201 58.6746 304.818 57.9037 305.203 56.9017L303.662 56.0538C303.276 56.9788 302.737 57.6725 302.12 58.2121Z" fill="white"/>
<path d="M317.919 55.2779L310.443 42.0971H308.516V61.2902H310.366V45.6428L317.38 57.8215H318.536L325.473 45.6428V61.2902H327.4V42.0971H325.473L317.919 55.2779Z" fill="white"/>
<path d="M346.437 45.0284C345.667 44.1035 344.742 43.3327 343.585 42.7931C342.506 42.2535 341.273 41.9452 339.886 41.9452C338.575 41.9452 337.419 42.1764 336.34 42.716C335.261 43.2556 334.259 43.9493 333.488 44.8743C332.64 45.7992 332.023 46.8013 331.561 47.9575C331.098 49.1137 330.867 50.347 330.867 51.6574C330.867 52.8907 331.098 54.0469 331.484 55.2031C331.946 56.3593 332.563 57.4384 333.334 58.3634C334.105 59.2884 335.107 60.0592 336.186 60.5987C337.265 61.1383 338.498 61.4466 339.886 61.4466C341.196 61.4466 342.352 61.2154 343.431 60.6758C344.51 60.1362 345.513 59.4425 346.283 58.5175C347.131 57.5926 347.748 56.5905 348.21 55.4343C348.673 54.2781 348.904 53.0448 348.904 51.7344C348.904 50.5012 348.673 49.3449 348.287 48.1887C347.825 47.0325 347.208 46.0305 346.437 45.0284ZM346.515 54.6635C346.206 55.5885 345.744 56.5134 345.127 57.2072C344.51 57.978 343.74 58.5946 342.892 59.0571C342.044 59.5196 341.042 59.7508 339.963 59.7508C338.884 59.7508 337.959 59.5196 337.111 59.0571C336.263 58.5946 335.492 58.0551 334.875 57.2843C334.259 56.5134 333.719 55.6656 333.411 54.7406C333.103 53.7385 332.871 52.7365 332.871 51.7344C332.871 50.7324 333.025 49.8074 333.334 48.8054C333.642 47.8804 334.182 46.9554 334.798 46.2617C335.415 45.4909 336.186 44.8743 337.034 44.4118C337.882 43.9493 338.884 43.7181 339.963 43.7181C341.042 43.7181 341.967 43.9493 342.815 44.3347C343.663 44.7972 344.433 45.3368 345.05 46.1076C345.667 46.8784 346.206 47.7263 346.515 48.6512C346.823 49.5762 347.054 50.5782 347.054 51.6574C347.054 52.6594 346.9 53.6615 346.515 54.6635Z" fill="white"/>
<path d="M365.789 50.653H354.381V42.0971H352.454V61.2902H354.381V52.3488H365.789V61.2902H367.639V42.0971H365.789V50.653Z" fill="white"/>
<path d="M378.349 42.0971L370.333 61.2902H372.337L374.727 55.2779H383.514L385.903 61.2902H387.907L379.968 42.0971H378.349ZM375.343 53.8133L379.12 44.3324L382.897 53.8133H375.343Z" fill="white"/>
<path d="M401.554 51.4238C402.402 51.0384 403.095 50.4218 403.558 49.5739C404.02 48.726 404.252 47.8781 404.252 46.9532C404.252 46.1053 404.098 45.3345 403.712 44.6407C403.327 43.8699 402.864 43.2533 402.17 42.7908C401.477 42.3283 400.706 42.0971 399.858 42.0971H390.608V61.2902H399.627C400.629 61.2902 401.477 61.0589 402.325 60.6735C403.173 60.2881 403.789 59.6715 404.252 58.9007C404.714 58.1299 404.945 57.282 404.945 56.357C404.945 55.2008 404.637 54.1217 404.02 53.2738C403.558 52.4259 402.71 51.8092 401.554 51.4238ZM392.612 43.7929H399.396C400.012 43.7929 400.552 43.947 401.014 44.2553C401.477 44.5637 401.862 45.0261 402.093 45.5657C402.402 46.1053 402.479 46.7219 402.479 47.3386C402.479 47.9552 402.325 48.4948 402.016 49.0343C401.708 49.5739 401.323 50.0364 400.86 50.3447C400.398 50.653 399.781 50.8072 399.164 50.8072H392.535V43.7929H392.612ZM402.787 57.8215C402.479 58.3611 402.016 58.8236 401.554 59.1319C401.014 59.4402 400.475 59.6715 399.781 59.6715H392.612V52.4259H399.935C400.552 52.4259 401.091 52.58 401.631 52.9654C402.093 53.2738 402.556 53.7363 402.787 54.2758C403.095 54.8154 403.25 55.432 403.25 56.0487C403.25 56.6653 403.095 57.282 402.787 57.8215Z" fill="white"/>
<path d="M406.487 43.7929H413.348V61.2902H415.197V43.7929H422.058V42.0971H406.487V43.7929Z" fill="white"/>
<path d="M426.912 58.6694V42.0971H424.985V61.2902H426.912L438.706 45.0261V61.2902H440.556V42.0971H438.783L426.912 58.6694Z" fill="white"/>
<path d="M459.054 42.0971H456.819L450.267 50.653H447.338V42.0971H445.488V61.2902H447.338V52.3488H450.267L457.127 61.2902H459.517L451.809 51.4238L459.054 42.0971Z" fill="white"/>
<path d="M464.527 58.6694V42.0971H462.677V61.2902H464.604L476.32 45.0261V61.2902H478.247V42.0971H476.474L464.527 58.6694Z" fill="white"/>
</svg>
