<svg width="239" height="152" viewBox="0 0 239 152" fill="none" xmlns="http://www.w3.org/2000/svg">
<path fill-rule="evenodd" clip-rule="evenodd" d="M34.9458 125.433C38.4206 125.439 41.7517 126.821 44.2092 129.278C46.6667 131.734 48.0506 135.065 48.0574 138.54C48.0582 141.133 47.2901 143.669 45.85 145.826C44.4098 147.982 42.3623 149.664 39.9666 150.657C37.5709 151.65 34.9342 151.91 32.3906 151.404C29.847 150.899 27.5103 149.651 25.6763 147.817C23.8422 145.984 22.5931 143.647 22.0868 141.104C21.5806 138.56 21.8399 135.924 22.8322 133.528C23.8244 131.132 25.5051 129.084 27.6613 127.643C29.8175 126.202 32.3525 125.433 34.9458 125.433ZM38.1386 130.835C36.6143 130.203 34.937 130.038 33.3189 130.36C31.7009 130.682 30.2147 131.477 29.0482 132.644C27.8816 133.81 27.087 135.297 26.7651 136.915C26.4431 138.533 26.6084 140.21 27.2396 141.734C27.8708 143.259 28.9397 144.561 30.3113 145.478C31.6828 146.395 33.2952 146.885 34.9449 146.885C36.0414 146.887 37.1277 146.673 38.1412 146.255C39.1547 145.836 40.0754 145.221 40.8508 144.446C41.6261 143.67 42.2408 142.75 42.6593 141.736C43.0779 140.723 43.2924 139.636 43.29 138.54C43.2895 136.89 42.7997 135.278 41.8829 133.906C40.966 132.535 39.6629 131.466 38.1386 130.835Z" fill="white"/>
<path fill-rule="evenodd" clip-rule="evenodd" d="M113.318 125.433C116.793 125.439 120.123 126.821 122.58 129.278C125.037 131.735 126.42 135.065 126.427 138.54C126.427 141.133 125.659 143.669 124.219 145.826C122.778 147.982 120.731 149.664 118.335 150.657C115.939 151.649 113.303 151.91 110.759 151.404C108.215 150.898 105.879 149.65 104.045 147.816C102.211 145.983 100.962 143.646 100.456 141.102C99.9497 138.559 100.21 135.922 101.202 133.526C102.195 131.13 103.876 129.082 106.032 127.642C108.189 126.201 110.725 125.433 113.318 125.433ZM116.509 130.835C114.984 130.204 113.307 130.039 111.689 130.361C110.071 130.683 108.584 131.478 107.418 132.644C106.251 133.811 105.457 135.298 105.136 136.916C104.814 138.534 104.979 140.211 105.611 141.736C106.242 143.26 107.311 144.563 108.683 145.479C110.055 146.396 111.668 146.885 113.318 146.885C114.414 146.887 115.5 146.672 116.513 146.253C117.526 145.835 118.446 145.22 119.221 144.445C119.996 143.67 120.611 142.749 121.029 141.735C121.447 140.722 121.661 139.636 121.659 138.54H121.661C121.66 136.89 121.17 135.277 120.253 133.906C119.336 132.534 118.033 131.466 116.509 130.835Z" fill="white"/>
<path fill-rule="evenodd" clip-rule="evenodd" d="M200.471 125.433C203.946 125.438 207.277 126.82 209.735 129.277C212.193 131.734 213.576 135.065 213.582 138.54C213.583 141.133 212.815 143.669 211.375 145.826C209.935 147.982 207.887 149.664 205.491 150.657C203.096 151.65 200.459 151.91 197.915 151.404C195.372 150.899 193.035 149.651 191.201 147.817C189.367 145.984 188.118 143.647 187.612 141.104C187.105 138.56 187.365 135.924 188.357 133.528C189.349 131.132 191.03 129.084 193.186 127.643C195.342 126.202 197.877 125.433 200.471 125.433ZM203.663 130.835C202.139 130.204 200.461 130.039 198.843 130.361C197.225 130.683 195.739 131.478 194.573 132.644C193.406 133.811 192.612 135.298 192.29 136.916C191.969 138.534 192.134 140.211 192.765 141.736C193.397 143.26 194.466 144.563 195.838 145.479C197.21 146.396 198.823 146.885 200.473 146.885C201.569 146.887 202.655 146.673 203.668 146.254C204.681 145.835 205.602 145.221 206.377 144.445C207.152 143.67 207.767 142.749 208.185 141.736C208.604 140.722 208.818 139.636 208.816 138.54C208.815 136.89 208.325 135.277 207.408 133.906C206.491 132.534 205.188 131.466 203.663 130.835Z" fill="white"/>
<path d="M64.6667 125.437C67.4599 125.437 70.6647 126.478 72.786 128.415L70.9605 132.736C69.2996 131.11 67.0664 130.201 64.7419 130.204C59.975 130.204 56.1014 133.925 56.1014 138.543C56.1014 143.161 59.975 146.888 64.7419 146.888C65.8983 146.899 67.0452 146.676 68.1138 146.234C69.1825 145.792 70.1515 145.14 70.9627 144.316L72.786 148.638C70.5216 150.572 67.6447 151.641 64.6667 151.655C57.3293 151.655 51.3341 145.768 51.3341 138.543C51.3341 131.318 57.3293 125.437 64.6667 125.437Z" fill="white"/>
<path d="M143.038 125.437C145.831 125.437 149.033 126.478 151.156 128.415L149.331 132.736C147.67 131.11 145.437 130.201 143.113 130.204C138.346 130.204 134.472 133.925 134.471 138.543C134.471 143.162 138.346 146.888 143.113 146.888C144.269 146.899 145.415 146.676 146.483 146.235C147.551 145.793 148.52 145.141 149.331 144.317L151.156 148.638C148.892 150.572 146.015 151.641 143.038 151.655C135.7 151.655 129.705 145.768 129.705 138.543C129.705 131.318 135.7 125.437 143.038 125.437Z" fill="white"/>
<path d="M230.193 125.437C232.988 125.437 236.189 126.478 238.312 128.415L236.487 132.736C234.826 131.11 232.593 130.201 230.269 130.204C225.502 130.204 221.628 133.925 221.628 138.543C221.628 143.162 225.502 146.888 230.269 146.888C231.425 146.898 232.571 146.676 233.639 146.234C234.707 145.793 235.676 145.141 236.487 144.317L238.312 148.638C236.048 150.572 233.171 151.641 230.193 151.655C222.857 151.655 216.861 145.768 216.861 138.543C216.861 131.318 222.856 125.437 230.193 125.437Z" fill="white"/>
<path fill-rule="evenodd" clip-rule="evenodd" d="M9.16733 126.028C15.6844 126.028 18.7016 129.528 18.7016 134.371C18.7016 138.615 15.6478 142.712 10.3616 142.712H4.9978V151.055H0.230469V126.028H9.16733ZM4.9978 137.946H9.7647C12.0755 137.945 13.9347 136.456 13.9347 134.371C13.9347 132.023 12.0742 130.795 9.7647 130.795H4.9978V137.946Z" fill="white"/>
<path d="M83.7187 136.382L92.5851 126.028H98.6194L87.8895 137.982L99.2146 151.055H93.1807L83.7187 140.106V151.055H78.9527V126.028H83.7187V136.382Z" fill="white"/>
<path d="M169.915 142.118L176.471 126.028H181.238L184.811 151.055H179.745L177.66 134.668L171.108 151.055H168.725L162.169 134.668L160.083 151.055H155.017L158.593 126.028H163.36L169.915 142.118Z" fill="white"/>
<path fill-rule="evenodd" clip-rule="evenodd" d="M157.951 57.4338C176.746 48.1352 189.524 37.0046 189.892 28.1355C190.182 21.1591 182.726 16.9519 170.556 15.8445C185.432 16.5089 194.751 20.8449 194.751 28.5854C194.751 38.42 179.732 51.2691 157.373 62.2439L155.319 79.346L145.178 67.7345C137.098 71.0699 128.373 74.1139 119.272 76.6939C110.979 79.0449 102.997 80.8328 95.5317 82.0733L60.1688 100.832L77.6368 84.0627C57.2434 85.0571 43.7935 80.6696 43.7935 71.3629C43.7936 56.6096 77.593 35.07 119.272 23.2587L119.92 23.0779C87.7043 33.0757 62.2152 50.2036 61.6906 62.7834C61.3569 70.7907 71.2118 75.1527 86.6991 75.3624L164.804 0.382812L157.951 57.4338ZM113.577 72.5006C117.209 71.7609 120.952 70.8764 124.779 69.8424C130.782 68.2201 136.606 66.3348 142.142 64.258L138.018 59.5361L113.577 72.5006Z" fill="white"/>
</svg>
