<svg width="46" height="38" viewBox="0 0 46 38" fill="none" xmlns="http://www.w3.org/2000/svg">
<path d="M44.3507 0.0268816C45.3787 -0.127143 46.0486 0.386745 45.9972 1.41357C45.8945 2.85067 45.7922 4.33948 45.4839 5.72522C43.1711 15.7363 40.8072 25.7474 38.4944 35.7584C38.443 35.8611 38.3911 35.9137 38.3911 36.0164C37.8258 38.0184 36.1292 38.5829 34.4846 37.3515C33.5595 36.6327 32.685 35.9131 31.7599 35.2456C29.6013 33.6541 27.39 32.1157 25.1287 30.4728C23.0732 32.3721 21.0695 34.2206 19.014 36.1712C18.8084 36.4278 18.4991 36.6331 18.1908 36.7871C17.4714 37.1976 16.9577 36.9403 16.9575 36.068C16.9575 35.4006 17.0611 34.7328 17.1125 34.0653C17.2667 32.063 17.4718 30.0081 17.6774 28.0058C17.7288 27.1334 17.7784 26.3115 17.9325 25.4904C17.9841 25.2339 18.2436 24.9765 18.449 24.7713C23.4338 20.2027 28.4184 15.6339 33.4031 11.014C34.4825 9.9872 35.4616 8.90919 36.4895 7.83106C36.7465 7.52301 36.9525 7.16197 37.2094 6.85392C37.1581 6.80258 37.1575 6.75047 37.1061 6.69913C36.8494 6.8017 36.6432 6.85465 36.4379 6.95712C33.0461 9.01046 29.602 11.0635 26.2102 13.1682C21.5329 16.0433 16.9053 18.9715 12.2795 21.8979C11.8172 22.1544 11.4567 22.2067 10.9429 22.0527C7.70486 20.9745 4.51832 19.9447 1.28024 18.8665C1.02342 18.764 0.714015 18.6624 0.508645 18.5086C-0.107288 17.9954 -0.209967 17.174 0.45699 16.6607C0.970972 16.25 1.64168 15.8919 2.25845 15.6352C8.47744 13.2223 14.6968 10.7573 20.9672 8.447C28.3167 5.72607 35.7682 3.05418 43.1691 0.333244C43.5284 0.179423 43.9401 0.0782905 44.3507 0.0268816Z" fill="white"/>
</svg>
