<svg width="90" height="90" viewBox="0 0 90 90" fill="none" xmlns="http://www.w3.org/2000/svg">
<mask id="path-1-inside-1_159_969" fill="white">
<path d="M45 0C69.8528 0 90 20.1472 90 45C90 69.8528 69.8528 90 45 90C36.014 90 27.6439 87.365 20.6182 82.8271L3.52539 87.4072L8.01855 70.6396C2.96509 63.3645 0 54.5292 0 45C0 20.1472 20.1472 0 45 0Z"/>
</mask>
<path d="M45 0C69.8528 0 90 20.1472 90 45C90 69.8528 69.8528 90 45 90C36.014 90 27.6439 87.365 20.6182 82.8271L3.52539 87.4072L8.01855 70.6396C2.96509 63.3645 0 54.5292 0 45C0 20.1472 20.1472 0 45 0Z" fill="url(#paint0_linear_159_969)"/>
<path d="M20.6182 82.8271L22.0071 80.6767L21.0529 80.0604L19.9556 80.3544L20.6182 82.8271ZM3.52539 87.4072L1.05263 86.7446L-0.095086 91.0277L4.18798 89.88L3.52539 87.4072ZM8.01855 70.6396L10.4913 71.3023L10.7988 70.1548L10.1211 69.1792L8.01855 70.6396ZM45 0V2.56C68.439 2.56 87.44 21.561 87.44 45H90H92.56C92.56 18.7333 71.2667 -2.56 45 -2.56V0ZM90 45H87.44C87.44 68.439 68.439 87.44 45 87.44V90V92.56C71.2667 92.56 92.56 71.2667 92.56 45H90ZM45 90V87.44C36.5217 87.44 28.6316 84.9554 22.0071 80.6767L20.6182 82.8271L19.2292 84.9776C26.6562 89.7746 35.5063 92.56 45 92.56V90ZM20.6182 82.8271L19.9556 80.3544L2.8628 84.9345L3.52539 87.4072L4.18798 89.88L21.2808 85.2999L20.6182 82.8271ZM3.52539 87.4072L5.99815 88.0698L10.4913 71.3023L8.01855 70.6396L5.5458 69.977L1.05263 86.7446L3.52539 87.4072ZM8.01855 70.6396L10.1211 69.1792C5.35543 62.3183 2.56 53.9898 2.56 45H0H-2.56C-2.56 55.0686 0.574741 64.4106 5.91602 72.1001L8.01855 70.6396ZM0 45H2.56C2.56 21.561 21.561 2.56 45 2.56V0V-2.56C18.7333 -2.56 -2.56 18.7333 -2.56 45H0Z" fill="url(#paint1_linear_159_969)" mask="url(#path-1-inside-1_159_969)"/>
<defs>
<linearGradient id="paint0_linear_159_969" x1="15.8203" y1="0" x2="15.8203" y2="90" gradientUnits="userSpaceOnUse">
<stop stop-color="#019CE5"/>
<stop offset="1" stop-color="#312684"/>
</linearGradient>
<linearGradient id="paint1_linear_159_969" x1="15.8203" y1="0" x2="15.8203" y2="90" gradientUnits="userSpaceOnUse">
<stop stop-color="#312684"/>
<stop offset="1" stop-color="#019CE5"/>
</linearGradient>
</defs>
</svg>
