<svg width="46" height="43" viewBox="0 0 46 43" fill="none" xmlns="http://www.w3.org/2000/svg">
<path fill-rule="evenodd" clip-rule="evenodd" d="M11.6958 1.99738C10.8474 0.0980395 9.95476 0.0595672 9.1489 0.0266809L6.97941 0C6.22465 0 4.99831 0.285428 3.96159 1.42714C2.92486 2.56886 0 5.32821 0 10.9406C0 16.553 4.05578 21.9761 4.62093 22.7381C5.18608 23.5001 12.4505 35.3845 23.9548 39.9569C33.515 43.7568 35.4604 43.001 37.5363 42.8112C39.6122 42.6213 44.2325 40.0518 45.175 37.388C46.1176 34.7242 46.1182 32.4421 45.8356 31.9649C45.553 31.4877 44.7983 31.2042 43.6655 30.6333C42.5327 30.0625 36.9693 27.3031 35.9319 26.9221C34.8946 26.5411 34.1404 26.3519 33.3851 27.4936C32.6297 28.6353 30.4633 31.2035 29.8027 31.9649C29.1421 32.7262 28.4828 32.8218 27.35 32.2516C26.2173 31.6813 22.5727 30.4763 18.2485 26.5902C14.8841 23.5665 12.6131 19.8323 11.9519 18.6912C11.2907 17.5501 11.8817 16.9321 12.4493 16.3637C12.9572 15.8525 13.5808 15.0315 14.1478 14.3657C14.7148 13.7 14.9014 13.224 15.2781 12.4639C15.6549 11.7038 15.4671 11.0362 15.1839 10.4659C14.9007 9.89568 12.7017 4.25351 11.6958 1.99738Z" fill="white"/>
</svg>
